<svg width="1894" height="1174" viewBox="0 0 1894 1174" fill="none" xmlns="http://www.w3.org/2000/svg">
<g clip-path="url(#clip0_1_17)">
<rect width="1894" height="1174" fill="#383434"/>
<rect x="520" y="166" width="854" height="533" rx="40" fill="#FD3A0E"/>
<path d="M578.013 289.938H575.013V283.037L568.513 272.462H571.738L576.513 280.412L581.288 272.462H584.513L578.013 283.037V289.938ZM587.439 286.437C588.239 287.237 589.247 287.637 590.464 287.637C591.68 287.637 592.68 287.237 593.464 286.437C594.264 285.621 594.664 284.571 594.664 283.287C594.664 282.004 594.264 280.962 593.464 280.162C592.68 279.346 591.68 278.937 590.464 278.937C589.247 278.937 588.239 279.346 587.439 280.162C586.655 280.962 586.264 282.004 586.264 283.287C586.264 284.571 586.655 285.621 587.439 286.437ZM595.464 288.162C594.13 289.479 592.464 290.138 590.464 290.138C588.464 290.138 586.797 289.479 585.464 288.162C584.13 286.829 583.464 285.204 583.464 283.287C583.464 281.371 584.13 279.754 585.464 278.437C586.797 277.104 588.464 276.437 590.464 276.437C592.464 276.437 594.13 277.104 595.464 278.437C596.797 279.754 597.464 281.371 597.464 283.287C597.464 285.204 596.797 286.829 595.464 288.162ZM607.947 283.837V276.637H610.747V289.938H607.947V287.512C607.497 288.329 606.872 288.971 606.072 289.437C605.289 289.904 604.439 290.138 603.522 290.138C602.022 290.138 600.806 289.679 599.872 288.762C598.956 287.846 598.497 286.521 598.497 284.787V276.637H601.297V283.937C601.297 286.387 602.314 287.612 604.347 287.612C605.314 287.612 606.156 287.296 606.872 286.662C607.589 286.012 607.947 285.071 607.947 283.837ZM619.784 279.262C618.401 279.262 617.359 279.712 616.659 280.612C615.959 281.512 615.609 282.721 615.609 284.237V289.938H612.809V276.637H615.609V279.312C616.059 278.479 616.668 277.796 617.434 277.262C618.218 276.729 619.043 276.454 619.909 276.437L619.934 279.262C619.884 279.262 619.834 279.262 619.784 279.262ZM637.296 276.637V288.237C637.296 290.588 636.654 292.346 635.371 293.513C634.104 294.696 632.471 295.288 630.471 295.288C628.471 295.288 626.662 294.663 625.046 293.413L626.371 291.288C627.671 292.271 628.979 292.763 630.296 292.763C631.629 292.763 632.679 292.421 633.446 291.738C634.229 291.054 634.621 289.962 634.621 288.462V286.762C634.204 287.546 633.604 288.171 632.821 288.637C632.054 289.104 631.187 289.337 630.221 289.337C628.454 289.337 627.004 288.721 625.871 287.487C624.737 286.254 624.171 284.721 624.171 282.887C624.171 281.054 624.737 279.521 625.871 278.287C627.004 277.054 628.446 276.437 630.196 276.437C631.962 276.437 633.396 277.162 634.496 278.612V276.637H637.296ZM626.921 282.787C626.921 283.871 627.254 284.812 627.921 285.612C628.604 286.396 629.512 286.787 630.646 286.787C631.796 286.787 632.721 286.404 633.421 285.637C634.137 284.871 634.496 283.921 634.496 282.787C634.496 281.637 634.137 280.671 633.421 279.887C632.704 279.087 631.779 278.687 630.646 278.687C629.512 278.687 628.604 279.096 627.921 279.912C627.254 280.729 626.921 281.687 626.921 282.787ZM642.453 286.437C643.253 287.237 644.262 287.637 645.478 287.637C646.695 287.637 647.695 287.237 648.478 286.437C649.278 285.621 649.678 284.571 649.678 283.287C649.678 282.004 649.278 280.962 648.478 280.162C647.695 279.346 646.695 278.937 645.478 278.937C644.262 278.937 643.253 279.346 642.453 280.162C641.67 280.962 641.278 282.004 641.278 283.287C641.278 284.571 641.67 285.621 642.453 286.437ZM650.478 288.162C649.145 289.479 647.478 290.138 645.478 290.138C643.478 290.138 641.812 289.479 640.478 288.162C639.145 286.829 638.478 285.204 638.478 283.287C638.478 281.371 639.145 279.754 640.478 278.437C641.812 277.104 643.478 276.437 645.478 276.437C647.478 276.437 649.145 277.104 650.478 278.437C651.812 279.754 652.478 281.371 652.478 283.287C652.478 285.204 651.812 286.829 650.478 288.162ZM664.437 289.938H661.887V288.162C660.787 289.479 659.312 290.138 657.462 290.138C656.079 290.138 654.929 289.746 654.012 288.962C653.112 288.179 652.662 287.137 652.662 285.837C652.662 284.521 653.145 283.537 654.112 282.887C655.079 282.237 656.387 281.912 658.037 281.912H661.662V281.412C661.662 279.646 660.679 278.762 658.712 278.762C657.479 278.762 656.195 279.212 654.862 280.112L653.612 278.362C655.229 277.079 657.062 276.437 659.112 276.437C660.679 276.437 661.954 276.837 662.937 277.637C663.937 278.421 664.437 279.662 664.437 281.362V289.938ZM661.637 284.987V283.862H658.487C656.47 283.862 655.462 284.496 655.462 285.762C655.462 286.412 655.712 286.912 656.212 287.262C656.712 287.596 657.404 287.762 658.287 287.762C659.187 287.762 659.97 287.512 660.637 287.012C661.304 286.512 661.637 285.837 661.637 284.987ZM669.135 289.938H666.335V271.387H669.135V289.938ZM680.67 285.962C680.67 287.229 680.212 288.246 679.295 289.012C678.378 289.763 677.203 290.138 675.77 290.138C674.803 290.138 673.795 289.963 672.745 289.612C671.712 289.262 670.795 288.771 669.995 288.137L671.345 285.962C672.895 287.129 674.395 287.712 675.845 287.712C676.478 287.712 676.978 287.571 677.345 287.287C677.712 286.987 677.895 286.612 677.895 286.162C677.895 285.496 677.012 284.896 675.245 284.362C675.112 284.312 675.012 284.279 674.945 284.262C672.178 283.512 670.795 282.262 670.795 280.512C670.795 279.279 671.27 278.296 672.22 277.562C673.187 276.812 674.437 276.437 675.97 276.437C677.503 276.437 678.953 276.887 680.32 277.787L679.27 279.862C678.187 279.146 677.012 278.787 675.745 278.787C675.078 278.787 674.537 278.912 674.12 279.162C673.703 279.396 673.495 279.754 673.495 280.237C673.495 280.671 673.712 280.987 674.145 281.187C674.445 281.337 674.862 281.479 675.395 281.612C675.945 281.746 676.428 281.879 676.845 282.012C677.262 282.146 677.662 282.296 678.045 282.462C678.445 282.629 678.87 282.862 679.32 283.162C680.22 283.762 680.67 284.696 680.67 285.962ZM681.992 289.587C681.642 289.221 681.467 288.779 681.467 288.262C681.467 287.746 681.642 287.312 681.992 286.962C682.358 286.596 682.8 286.412 683.317 286.412C683.833 286.412 684.275 286.596 684.642 286.962C685.008 287.312 685.192 287.746 685.192 288.262C685.192 288.779 685.008 289.221 684.642 289.587C684.275 289.954 683.833 290.138 683.317 290.138C682.8 290.138 682.358 289.954 681.992 289.587ZM698.373 289.938H695.373V283.037L688.873 272.462H692.098L696.873 280.412L701.648 272.462H704.873L698.373 283.037V289.938ZM707.799 286.437C708.599 287.237 709.607 287.637 710.824 287.637C712.041 287.637 713.041 287.237 713.824 286.437C714.624 285.621 715.024 284.571 715.024 283.287C715.024 282.004 714.624 280.962 713.824 280.162C713.041 279.346 712.041 278.937 710.824 278.937C709.607 278.937 708.599 279.346 707.799 280.162C707.016 280.962 706.624 282.004 706.624 283.287C706.624 284.571 707.016 285.621 707.799 286.437ZM715.824 288.162C714.491 289.479 712.824 290.138 710.824 290.138C708.824 290.138 707.157 289.479 705.824 288.162C704.491 286.829 703.824 285.204 703.824 283.287C703.824 281.371 704.491 279.754 705.824 278.437C707.157 277.104 708.824 276.437 710.824 276.437C712.824 276.437 714.491 277.104 715.824 278.437C717.157 279.754 717.824 281.371 717.824 283.287C717.824 285.204 717.157 286.829 715.824 288.162ZM728.308 283.837V276.637H731.108V289.938H728.308V287.512C727.858 288.329 727.233 288.971 726.433 289.437C725.649 289.904 724.799 290.138 723.883 290.138C722.383 290.138 721.166 289.679 720.233 288.762C719.316 287.846 718.858 286.521 718.858 284.787V276.637H721.658V283.937C721.658 286.387 722.674 287.612 724.708 287.612C725.674 287.612 726.516 287.296 727.233 286.662C727.949 286.012 728.308 285.071 728.308 283.837ZM740.145 279.262C738.761 279.262 737.72 279.712 737.02 280.612C736.32 281.512 735.97 282.721 735.97 284.237V289.938H733.17V276.637H735.97V279.312C736.42 278.479 737.028 277.796 737.795 277.262C738.578 276.729 739.403 276.454 740.27 276.437L740.295 279.262C740.245 279.262 740.195 279.262 740.145 279.262ZM749.681 285.937C750.481 286.871 751.565 287.337 752.931 287.337C754.298 287.337 755.381 286.871 756.181 285.937C756.981 285.004 757.381 283.737 757.381 282.137V272.462H760.331V282.262C760.331 284.779 759.64 286.721 758.256 288.087C756.873 289.437 755.098 290.113 752.931 290.113C750.765 290.113 748.99 289.437 747.606 288.087C746.223 286.721 745.531 284.779 745.531 282.262V272.462H748.481V282.137C748.481 283.737 748.881 285.004 749.681 285.937ZM772.021 285.962C772.021 287.229 771.562 288.246 770.646 289.012C769.729 289.763 768.554 290.138 767.121 290.138C766.154 290.138 765.146 289.963 764.096 289.612C763.062 289.262 762.146 288.771 761.346 288.137L762.696 285.962C764.246 287.129 765.746 287.712 767.196 287.712C767.829 287.712 768.329 287.571 768.696 287.287C769.062 286.987 769.246 286.612 769.246 286.162C769.246 285.496 768.362 284.896 766.596 284.362C766.462 284.312 766.362 284.279 766.296 284.262C763.529 283.512 762.146 282.262 762.146 280.512C762.146 279.279 762.621 278.296 763.571 277.562C764.537 276.812 765.787 276.437 767.321 276.437C768.854 276.437 770.304 276.887 771.671 277.787L770.621 279.862C769.537 279.146 768.362 278.787 767.096 278.787C766.429 278.787 765.887 278.912 765.471 279.162C765.054 279.396 764.846 279.754 764.846 280.237C764.846 280.671 765.062 280.987 765.496 281.187C765.796 281.337 766.212 281.479 766.746 281.612C767.296 281.746 767.779 281.879 768.196 282.012C768.612 282.146 769.012 282.296 769.396 282.462C769.796 282.629 770.221 282.862 770.671 283.162C771.571 283.762 772.021 284.696 772.021 285.962ZM785.567 284.512H775.142C775.209 285.479 775.65 286.262 776.467 286.862C777.284 287.446 778.217 287.737 779.267 287.737C780.934 287.737 782.2 287.212 783.067 286.162L784.667 287.912C783.234 289.396 781.367 290.138 779.067 290.138C777.2 290.138 775.609 289.521 774.292 288.288C772.992 287.037 772.342 285.371 772.342 283.287C772.342 281.187 773.009 279.521 774.342 278.287C775.675 277.054 777.242 276.437 779.042 276.437C780.859 276.437 782.4 276.987 783.667 278.087C784.934 279.171 785.567 280.671 785.567 282.588V284.512ZM775.142 282.312H782.767C782.767 281.196 782.417 280.337 781.717 279.737C781.017 279.137 780.15 278.837 779.117 278.837C778.1 278.837 777.184 279.154 776.367 279.787C775.55 280.404 775.142 281.246 775.142 282.312ZM793.621 279.262C792.238 279.262 791.196 279.712 790.496 280.612C789.796 281.512 789.446 282.721 789.446 284.237V289.938H786.646V276.637H789.446V279.312C789.896 278.479 790.505 277.796 791.271 277.262C792.055 276.729 792.88 276.454 793.746 276.437L793.771 279.262C793.721 279.262 793.671 279.262 793.621 279.262ZM804.058 285.962C804.058 287.229 803.599 288.246 802.683 289.012C801.766 289.763 800.591 290.138 799.158 290.138C798.191 290.138 797.183 289.963 796.133 289.612C795.099 289.262 794.183 288.771 793.383 288.137L794.733 285.962C796.283 287.129 797.783 287.712 799.233 287.712C799.866 287.712 800.366 287.571 800.733 287.287C801.099 286.987 801.283 286.612 801.283 286.162C801.283 285.496 800.399 284.896 798.633 284.362C798.499 284.312 798.399 284.279 798.333 284.262C795.566 283.512 794.183 282.262 794.183 280.512C794.183 279.279 794.658 278.296 795.608 277.562C796.574 276.812 797.824 276.437 799.358 276.437C800.891 276.437 802.341 276.887 803.708 277.787L802.658 279.862C801.574 279.146 800.399 278.787 799.133 278.787C798.466 278.787 797.924 278.912 797.508 279.162C797.091 279.396 796.883 279.754 796.883 280.237C796.883 280.671 797.099 280.987 797.533 281.187C797.833 281.337 798.249 281.479 798.783 281.612C799.333 281.746 799.816 281.879 800.233 282.012C800.649 282.146 801.049 282.296 801.433 282.462C801.833 282.629 802.258 282.862 802.708 283.162C803.608 283.762 804.058 284.696 804.058 285.962ZM805.379 289.587C805.029 289.221 804.854 288.779 804.854 288.262C804.854 287.746 805.029 287.312 805.379 286.962C805.746 286.596 806.188 286.412 806.704 286.412C807.221 286.412 807.663 286.596 808.029 286.962C808.396 287.312 808.579 287.746 808.579 288.262C808.579 288.779 808.396 289.221 808.029 289.587C807.663 289.954 807.221 290.138 806.704 290.138C806.188 290.138 805.746 289.954 805.379 289.587ZM821.761 289.938H818.761V283.037L812.261 272.462H815.486L820.261 280.412L825.036 272.462H828.261L821.761 283.037V289.938ZM831.187 286.437C831.987 287.237 832.995 287.637 834.212 287.637C835.428 287.637 836.428 287.237 837.212 286.437C838.012 285.621 838.412 284.571 838.412 283.287C838.412 282.004 838.012 280.962 837.212 280.162C836.428 279.346 835.428 278.937 834.212 278.937C832.995 278.937 831.987 279.346 831.187 280.162C830.403 280.962 830.012 282.004 830.012 283.287C830.012 284.571 830.403 285.621 831.187 286.437ZM839.212 288.162C837.878 289.479 836.212 290.138 834.212 290.138C832.212 290.138 830.545 289.479 829.212 288.162C827.878 286.829 827.212 285.204 827.212 283.287C827.212 281.371 827.878 279.754 829.212 278.437C830.545 277.104 832.212 276.437 834.212 276.437C836.212 276.437 837.878 277.104 839.212 278.437C840.545 279.754 841.212 281.371 841.212 283.287C841.212 285.204 840.545 286.829 839.212 288.162ZM851.695 283.837V276.637H854.495V289.938H851.695V287.512C851.245 288.329 850.62 288.971 849.82 289.437C849.037 289.904 848.187 290.138 847.27 290.138C845.77 290.138 844.554 289.679 843.62 288.762C842.704 287.846 842.245 286.521 842.245 284.787V276.637H845.045V283.937C845.045 286.387 846.062 287.612 848.095 287.612C849.062 287.612 849.904 287.296 850.62 286.662C851.337 286.012 851.695 285.071 851.695 283.837ZM863.532 279.262C862.149 279.262 861.107 279.712 860.407 280.612C859.707 281.512 859.357 282.721 859.357 284.237V289.938H856.557V276.637H859.357V279.312C859.807 278.479 860.416 277.796 861.182 277.262C861.966 276.729 862.791 276.454 863.657 276.437L863.682 279.262C863.632 279.262 863.582 279.262 863.532 279.262ZM875.144 272.462C877.794 272.462 879.727 272.971 880.944 273.987C882.161 275.004 882.769 276.571 882.769 278.687C882.769 280.804 882.144 282.354 880.894 283.338C879.661 284.321 877.761 284.812 875.194 284.812H872.094V289.938H869.144V272.462H875.144ZM875.519 282.137C877.152 282.137 878.261 281.829 878.844 281.212C879.444 280.579 879.744 279.662 879.744 278.462C879.744 277.246 879.369 276.387 878.619 275.887C877.869 275.387 876.694 275.137 875.094 275.137H872.094V282.137H875.519ZM890.809 279.262C889.425 279.262 888.384 279.712 887.684 280.612C886.984 281.512 886.634 282.721 886.634 284.237V289.938H883.834V276.637H886.634V279.312C887.084 278.479 887.692 277.796 888.459 277.262C889.242 276.729 890.067 276.454 890.934 276.437L890.959 279.262C890.909 279.262 890.859 279.262 890.809 279.262ZM894.87 286.437C895.67 287.237 896.679 287.637 897.895 287.637C899.112 287.637 900.112 287.237 900.895 286.437C901.695 285.621 902.095 284.571 902.095 283.287C902.095 282.004 901.695 280.962 900.895 280.162C900.112 279.346 899.112 278.937 897.895 278.937C896.679 278.937 895.67 279.346 894.87 280.162C894.087 280.962 893.695 282.004 893.695 283.287C893.695 284.571 894.087 285.621 894.87 286.437ZM902.895 288.162C901.562 289.479 899.895 290.138 897.895 290.138C895.895 290.138 894.229 289.479 892.895 288.162C891.562 286.829 890.895 285.204 890.895 283.287C890.895 281.371 891.562 279.754 892.895 278.437C894.229 277.104 895.895 276.437 897.895 276.437C899.895 276.437 901.562 277.104 902.895 278.437C904.229 279.754 904.895 281.371 904.895 283.287C904.895 285.204 904.229 286.829 902.895 288.162ZM911.504 290.138C909.82 290.138 908.354 289.504 907.104 288.237C905.854 286.971 905.229 285.304 905.229 283.237C905.229 281.171 905.87 279.521 907.154 278.287C908.437 277.054 909.962 276.437 911.729 276.437C913.512 276.437 914.946 277.187 916.029 278.687V271.387H918.829V289.938H916.029V287.937C914.996 289.404 913.487 290.138 911.504 290.138ZM908.029 283.362C908.029 284.629 908.437 285.662 909.254 286.462C910.07 287.262 911.029 287.662 912.129 287.662C913.229 287.662 914.162 287.262 914.929 286.462C915.696 285.646 916.079 284.604 916.079 283.338C916.079 282.071 915.696 281.012 914.929 280.162C914.162 279.312 913.221 278.887 912.104 278.887C910.987 278.887 910.029 279.312 909.229 280.162C908.429 281.012 908.029 282.079 908.029 283.362ZM930.176 283.837V276.637H932.976V289.938H930.176V287.512C929.726 288.329 929.101 288.971 928.301 289.437C927.517 289.904 926.667 290.138 925.751 290.138C924.251 290.138 923.034 289.679 922.101 288.762C921.184 287.846 920.726 286.521 920.726 284.787V276.637H923.526V283.937C923.526 286.387 924.542 287.612 926.576 287.612C927.542 287.612 928.384 287.296 929.101 286.662C929.817 286.012 930.176 285.071 930.176 283.837ZM940.938 290.138C939.088 290.138 937.496 289.512 936.163 288.262C934.829 286.996 934.163 285.346 934.163 283.312C934.163 281.279 934.854 279.629 936.238 278.362C937.638 277.079 939.338 276.437 941.338 276.437C943.338 276.437 945.029 277.129 946.413 278.512L944.763 280.537C943.613 279.537 942.454 279.037 941.288 279.037C940.121 279.037 939.104 279.429 938.238 280.212C937.388 280.979 936.963 281.979 936.963 283.212C936.963 284.429 937.388 285.462 938.238 286.312C939.088 287.162 940.129 287.587 941.363 287.587C942.613 287.587 943.788 287.021 944.888 285.887L946.538 287.687C944.921 289.321 943.054 290.138 940.938 290.138ZM950.892 278.887V285.637C950.892 286.271 951.059 286.779 951.392 287.162C951.725 287.529 952.192 287.712 952.792 287.712C953.392 287.712 953.967 287.421 954.517 286.837L955.667 288.812C954.684 289.696 953.592 290.138 952.392 290.138C951.209 290.138 950.192 289.729 949.342 288.912C948.509 288.079 948.092 286.962 948.092 285.562V278.887H946.417V276.637H948.092V272.462H950.892V276.637H954.392V278.887H950.892Z" fill="white"/>
<path d="M581.147 202.084C589.169 202.084 595.334 204.047 599.643 207.972C603.953 211.855 606.107 217.274 606.107 224.228C606.107 231.183 604.017 236.687 599.835 240.74C595.654 244.794 589.254 246.82 580.635 246.82H565.787V202.084H581.147ZM598.491 224.42C598.491 214.18 592.625 209.06 580.891 209.06H573.339V239.716H581.723C587.142 239.716 591.281 238.436 594.139 235.876C597.041 233.274 598.491 229.455 598.491 224.42ZM616.994 246.82H609.826V212.772H616.994V246.82ZM610.274 205.988C609.378 205.092 608.93 204.026 608.93 202.788C608.93 201.551 609.378 200.484 610.274 199.588C611.17 198.692 612.236 198.244 613.474 198.244C614.711 198.244 615.778 198.692 616.674 199.588C617.57 200.484 618.018 201.551 618.018 202.788C618.018 204.026 617.57 205.092 616.674 205.988C615.778 206.884 614.711 207.332 613.474 207.332C612.236 207.332 611.17 206.884 610.274 205.988ZM646.644 236.644C646.644 239.887 645.471 242.49 643.124 244.452C640.778 246.372 637.77 247.332 634.1 247.332C631.626 247.332 629.044 246.884 626.356 245.988C623.711 245.092 621.364 243.834 619.316 242.212L622.772 236.644C626.74 239.631 630.58 241.124 634.292 241.124C635.914 241.124 637.194 240.762 638.132 240.036C639.071 239.268 639.54 238.308 639.54 237.156C639.54 235.45 637.279 233.914 632.756 232.548C632.415 232.42 632.159 232.335 631.988 232.292C624.906 230.372 621.364 227.172 621.364 222.692C621.364 219.535 622.58 217.018 625.012 215.14C627.487 213.22 630.687 212.26 634.612 212.26C638.538 212.26 642.25 213.412 645.748 215.716L643.06 221.028C640.287 219.194 637.279 218.276 634.036 218.276C632.33 218.276 630.943 218.596 629.876 219.236C628.81 219.834 628.276 220.751 628.276 221.988C628.276 223.098 628.831 223.908 629.94 224.42C630.708 224.804 631.775 225.167 633.14 225.508C634.548 225.85 635.786 226.191 636.852 226.532C637.919 226.874 638.943 227.258 639.924 227.684C640.948 228.111 642.036 228.708 643.188 229.476C645.492 231.012 646.644 233.402 646.644 236.644ZM664.867 247.332C660.131 247.332 656.057 245.732 652.643 242.532C649.23 239.29 647.523 235.066 647.523 229.86C647.523 224.655 649.294 220.431 652.835 217.188C656.419 213.903 660.771 212.26 665.891 212.26C671.011 212.26 675.342 214.031 678.883 217.572L674.659 222.756C671.715 220.196 668.75 218.916 665.763 218.916C662.777 218.916 660.174 219.919 657.955 221.924C655.779 223.887 654.691 226.447 654.691 229.604C654.691 232.719 655.779 235.364 657.955 237.54C660.131 239.716 662.798 240.804 665.955 240.804C669.155 240.804 672.163 239.354 674.979 236.452L679.203 241.06C675.065 245.242 670.286 247.332 664.867 247.332ZM689.574 237.86C691.622 239.908 694.204 240.932 697.318 240.932C700.433 240.932 702.993 239.908 704.998 237.86C707.046 235.77 708.07 233.082 708.07 229.796C708.07 226.511 707.046 223.844 704.998 221.796C702.993 219.706 700.433 218.66 697.318 218.66C694.204 218.66 691.622 219.706 689.574 221.796C687.569 223.844 686.566 226.511 686.566 229.796C686.566 233.082 687.569 235.77 689.574 237.86ZM710.118 242.276C706.705 245.647 702.438 247.332 697.318 247.332C692.198 247.332 687.932 245.647 684.518 242.276C681.105 238.863 679.398 234.703 679.398 229.796C679.398 224.89 681.105 220.751 684.518 217.38C687.932 213.967 692.198 212.26 697.318 212.26C702.438 212.26 706.705 213.967 710.118 217.38C713.532 220.751 715.238 224.89 715.238 229.796C715.238 234.703 713.532 238.863 710.118 242.276ZM727.412 246.82L713.716 212.772H721.14L731.508 238.5L741.876 212.772H749.3L735.604 246.82H727.412ZM781.693 232.932H755.005C755.176 235.407 756.307 237.412 758.397 238.948C760.488 240.442 762.877 241.188 765.565 241.188C769.832 241.188 773.075 239.844 775.293 237.156L779.389 241.636C775.72 245.434 770.941 247.332 765.053 247.332C760.275 247.332 756.2 245.754 752.829 242.596C749.501 239.396 747.837 235.13 747.837 229.796C747.837 224.42 749.544 220.154 752.957 216.996C756.371 213.839 760.381 212.26 764.989 212.26C769.64 212.26 773.587 213.668 776.829 216.484C780.072 219.258 781.693 223.098 781.693 228.004V232.932ZM755.005 227.3H774.525C774.525 224.442 773.629 222.244 771.837 220.708C770.045 219.172 767.827 218.404 765.181 218.404C762.579 218.404 760.232 219.215 758.141 220.836C756.051 222.415 755.005 224.57 755.005 227.3ZM802.432 219.492C798.89 219.492 796.224 220.644 794.432 222.948C792.64 225.252 791.744 228.346 791.744 232.228V246.82H784.576V212.772H791.744V219.62C792.896 217.487 794.453 215.738 796.416 214.372C798.421 213.007 800.533 212.303 802.752 212.26L802.816 219.492C802.688 219.492 802.56 219.492 802.432 219.492Z" fill="white"/>
<circle cx="1274.5" cy="247.5" r="53.5" fill="#302C2C"/>
<path d="M1279.25 274L1276.84 271.613L1299.18 249.3H1245V245.881H1299.18L1276.84 223.569L1279.25 221.182L1305.66 247.591L1279.25 274Z" fill="white"/>
<rect x="520" y="314" width="854" height="533" rx="40" fill="#8FD291"/>
<path d="M571.138 420.462H574.088V437.938H571.138V420.462ZM579.326 430.737V437.938H576.526V424.637H579.326V427.062C579.776 426.246 580.393 425.604 581.176 425.137C581.976 424.671 582.834 424.437 583.751 424.437C585.251 424.437 586.459 424.896 587.376 425.812C588.309 426.729 588.776 428.054 588.776 429.787V437.938H585.976V430.637C585.976 428.187 584.959 426.962 582.926 426.962C581.959 426.962 581.118 427.287 580.401 427.937C579.684 428.571 579.326 429.504 579.326 430.737ZM594.138 426.887V433.637C594.138 434.271 594.305 434.779 594.638 435.162C594.972 435.529 595.438 435.712 596.038 435.712C596.638 435.712 597.213 435.421 597.763 434.837L598.913 436.812C597.93 437.696 596.838 438.138 595.638 438.138C594.455 438.138 593.438 437.729 592.588 436.912C591.755 436.079 591.338 434.962 591.338 433.562V426.887H589.663V424.637H591.338V420.462H594.138V424.637H597.638V426.887H594.138ZM611.512 432.512H601.087C601.154 433.479 601.596 434.262 602.412 434.862C603.229 435.446 604.162 435.737 605.212 435.737C606.879 435.737 608.146 435.212 609.012 434.162L610.612 435.912C609.179 437.396 607.312 438.138 605.012 438.138C603.146 438.138 601.554 437.521 600.237 436.288C598.937 435.037 598.287 433.371 598.287 431.287C598.287 429.187 598.954 427.521 600.287 426.287C601.621 425.054 603.187 424.437 604.987 424.437C606.804 424.437 608.346 424.987 609.612 426.087C610.879 427.171 611.512 428.671 611.512 430.588V432.512ZM601.087 430.312H608.712C608.712 429.196 608.362 428.337 607.662 427.737C606.962 427.137 606.096 426.837 605.062 426.837C604.046 426.837 603.129 427.154 602.312 427.787C601.496 428.404 601.087 429.246 601.087 430.312ZM615.392 430.737V437.938H612.592V424.637H615.392V427.062C615.842 426.246 616.458 425.604 617.242 425.137C618.042 424.671 618.9 424.437 619.817 424.437C621.317 424.437 622.525 424.896 623.442 425.812C624.375 426.729 624.842 428.054 624.842 429.787V437.938H622.042V430.637C622.042 428.187 621.025 426.962 618.992 426.962C618.025 426.962 617.183 427.287 616.467 427.937C615.75 428.571 615.392 429.504 615.392 430.737ZM630.204 426.887V433.637C630.204 434.271 630.37 434.779 630.704 435.162C631.037 435.529 631.504 435.712 632.104 435.712C632.704 435.712 633.279 435.421 633.829 434.837L634.979 436.812C633.995 437.696 632.904 438.138 631.704 438.138C630.52 438.138 629.504 437.729 628.654 436.912C627.82 436.079 627.404 434.962 627.404 433.562V426.887H625.729V424.637H627.404V420.462H630.204V424.637H633.704V426.887H630.204ZM638.003 437.938H635.203V424.637H638.003V437.938ZM635.378 421.987C635.028 421.637 634.853 421.221 634.853 420.737C634.853 420.254 635.028 419.837 635.378 419.487C635.728 419.137 636.145 418.962 636.628 418.962C637.111 418.962 637.528 419.137 637.878 419.487C638.228 419.837 638.403 420.254 638.403 420.737C638.403 421.221 638.228 421.637 637.878 421.987C637.528 422.337 637.111 422.512 636.628 422.512C636.145 422.512 635.728 422.337 635.378 421.987ZM643.163 434.437C643.963 435.237 644.972 435.637 646.188 435.637C647.405 435.637 648.405 435.237 649.188 434.437C649.988 433.621 650.388 432.571 650.388 431.287C650.388 430.004 649.988 428.962 649.188 428.162C648.405 427.346 647.405 426.937 646.188 426.937C644.972 426.937 643.963 427.346 643.163 428.162C642.38 428.962 641.988 430.004 641.988 431.287C641.988 432.571 642.38 433.621 643.163 434.437ZM651.188 436.162C649.855 437.479 648.188 438.138 646.188 438.138C644.188 438.138 642.522 437.479 641.188 436.162C639.855 434.829 639.188 433.204 639.188 431.287C639.188 429.371 639.855 427.754 641.188 426.437C642.522 425.104 644.188 424.437 646.188 424.437C648.188 424.437 649.855 425.104 651.188 426.437C652.522 427.754 653.188 429.371 653.188 431.287C653.188 433.204 652.522 434.829 651.188 436.162ZM657.172 430.737V437.938H654.372V424.637H657.172V427.062C657.622 426.246 658.238 425.604 659.022 425.137C659.822 424.671 660.68 424.437 661.597 424.437C663.097 424.437 664.305 424.896 665.222 425.812C666.155 426.729 666.622 428.054 666.622 429.787V437.938H663.822V430.637C663.822 428.187 662.805 426.962 660.772 426.962C659.805 426.962 658.963 427.287 658.247 427.937C657.53 428.571 657.172 429.504 657.172 430.737ZM679.309 437.938H676.759V436.162C675.659 437.479 674.184 438.138 672.334 438.138C670.951 438.138 669.801 437.746 668.884 436.962C667.984 436.179 667.534 435.137 667.534 433.837C667.534 432.521 668.017 431.537 668.984 430.887C669.951 430.237 671.259 429.912 672.909 429.912H676.534V429.412C676.534 427.646 675.551 426.762 673.584 426.762C672.351 426.762 671.067 427.212 669.734 428.112L668.484 426.362C670.101 425.079 671.934 424.437 673.984 424.437C675.551 424.437 676.826 424.837 677.809 425.637C678.809 426.421 679.309 427.662 679.309 429.362V437.938ZM676.509 432.987V431.862H673.359C671.342 431.862 670.334 432.496 670.334 433.762C670.334 434.412 670.584 434.912 671.084 435.262C671.584 435.596 672.276 435.762 673.159 435.762C674.059 435.762 674.842 435.512 675.509 435.012C676.176 434.512 676.509 433.837 676.509 432.987ZM684.007 437.938H681.207V419.387H684.007V437.938ZM686.217 437.587C685.867 437.221 685.692 436.779 685.692 436.262C685.692 435.746 685.867 435.312 686.217 434.962C686.584 434.596 687.025 434.412 687.542 434.412C688.059 434.412 688.5 434.596 688.867 434.962C689.234 435.312 689.417 435.746 689.417 436.262C689.417 436.779 689.234 437.221 688.867 437.587C688.5 437.954 688.059 438.138 687.542 438.138C687.025 438.138 686.584 437.954 686.217 437.587ZM707.999 420.462V423.238H698.674V427.862H707.049V430.487H698.674V435.162H708.299V437.938H695.724V420.462H707.999ZM712.481 430.737V437.938H709.681V424.637H712.481V427.062C712.931 426.246 713.548 425.604 714.331 425.137C715.131 424.671 715.99 424.437 716.906 424.437C718.406 424.437 719.615 424.896 720.531 425.812C721.465 426.729 721.931 428.054 721.931 429.787V437.938H719.131V430.637C719.131 428.187 718.115 426.962 716.081 426.962C715.115 426.962 714.273 427.287 713.556 427.937C712.84 428.571 712.481 429.504 712.481 430.737ZM736.143 424.637V436.237C736.143 438.588 735.502 440.346 734.218 441.513C732.952 442.696 731.318 443.288 729.318 443.288C727.318 443.288 725.51 442.663 723.893 441.413L725.218 439.288C726.518 440.271 727.827 440.763 729.143 440.763C730.477 440.763 731.527 440.421 732.293 439.738C733.077 439.054 733.468 437.962 733.468 436.462V434.762C733.052 435.546 732.452 436.171 731.668 436.637C730.902 437.104 730.035 437.337 729.068 437.337C727.302 437.337 725.852 436.721 724.718 435.487C723.585 434.254 723.018 432.721 723.018 430.887C723.018 429.054 723.585 427.521 724.718 426.287C725.852 425.054 727.293 424.437 729.043 424.437C730.81 424.437 732.243 425.162 733.343 426.612V424.637H736.143ZM725.768 430.787C725.768 431.871 726.102 432.812 726.768 433.612C727.452 434.396 728.36 434.787 729.493 434.787C730.643 434.787 731.568 434.404 732.268 433.637C732.985 432.871 733.343 431.921 733.343 430.787C733.343 429.637 732.985 428.671 732.268 427.887C731.552 427.087 730.627 426.687 729.493 426.687C728.36 426.687 727.452 427.096 726.768 427.912C726.102 428.729 725.768 429.687 725.768 430.787ZM741.001 437.938H738.201V424.637H741.001V437.938ZM738.376 421.987C738.026 421.637 737.851 421.221 737.851 420.737C737.851 420.254 738.026 419.837 738.376 419.487C738.726 419.137 739.143 418.962 739.626 418.962C740.109 418.962 740.526 419.137 740.876 419.487C741.226 419.837 741.401 420.254 741.401 420.737C741.401 421.221 741.226 421.637 740.876 421.987C740.526 422.337 740.109 422.512 739.626 422.512C739.143 422.512 738.726 422.337 738.376 421.987ZM745.861 430.737V437.938H743.061V424.637H745.861V427.062C746.311 426.246 746.928 425.604 747.711 425.137C748.511 424.671 749.37 424.437 750.286 424.437C751.786 424.437 752.995 424.896 753.911 425.812C754.845 426.729 755.311 428.054 755.311 429.787V437.938H752.511V430.637C752.511 428.187 751.495 426.962 749.461 426.962C748.495 426.962 747.653 427.287 746.936 427.937C746.22 428.571 745.861 429.504 745.861 430.737ZM769.598 432.512H759.173C759.24 433.479 759.682 434.262 760.498 434.862C761.315 435.446 762.248 435.737 763.298 435.737C764.965 435.737 766.232 435.212 767.098 434.162L768.698 435.912C767.265 437.396 765.398 438.138 763.098 438.138C761.232 438.138 759.64 437.521 758.323 436.288C757.023 435.037 756.373 433.371 756.373 431.287C756.373 429.187 757.04 427.521 758.373 426.287C759.707 425.054 761.273 424.437 763.073 424.437C764.89 424.437 766.432 424.987 767.698 426.087C768.965 427.171 769.598 428.671 769.598 430.588V432.512ZM759.173 430.312H766.798C766.798 429.196 766.448 428.337 765.748 427.737C765.048 427.137 764.182 426.837 763.148 426.837C762.132 426.837 761.215 427.154 760.398 427.787C759.582 428.404 759.173 429.246 759.173 430.312ZM783.052 432.512H772.627C772.694 433.479 773.136 434.262 773.952 434.862C774.769 435.446 775.702 435.737 776.752 435.737C778.419 435.737 779.686 435.212 780.552 434.162L782.152 435.912C780.719 437.396 778.852 438.138 776.552 438.138C774.686 438.138 773.094 437.521 771.777 436.288C770.477 435.037 769.827 433.371 769.827 431.287C769.827 429.187 770.494 427.521 771.827 426.287C773.161 425.054 774.727 424.437 776.527 424.437C778.344 424.437 779.886 424.987 781.152 426.087C782.419 427.171 783.052 428.671 783.052 430.588V432.512ZM772.627 430.312H780.252C780.252 429.196 779.902 428.337 779.202 427.737C778.502 427.137 777.636 426.837 776.602 426.837C775.586 426.837 774.669 427.154 773.852 427.787C773.036 428.404 772.627 429.246 772.627 430.312ZM791.107 427.262C789.723 427.262 788.682 427.712 787.982 428.612C787.282 429.512 786.932 430.721 786.932 432.237V437.938H784.132V424.637H786.932V427.312C787.382 426.479 787.99 425.796 788.757 425.262C789.54 424.729 790.365 424.454 791.232 424.437L791.257 427.262C791.207 427.262 791.157 427.262 791.107 427.262ZM804.443 432.512H794.018C794.085 433.479 794.526 434.262 795.343 434.862C796.16 435.446 797.093 435.737 798.143 435.737C799.81 435.737 801.076 435.212 801.943 434.162L803.543 435.912C802.11 437.396 800.243 438.138 797.943 438.138C796.076 438.138 794.485 437.521 793.168 436.288C791.868 435.037 791.218 433.371 791.218 431.287C791.218 429.187 791.885 427.521 793.218 426.287C794.551 425.054 796.118 424.437 797.918 424.437C799.735 424.437 801.276 424.987 802.543 426.087C803.81 427.171 804.443 428.671 804.443 430.588V432.512ZM794.018 430.312H801.643C801.643 429.196 801.293 428.337 800.593 427.737C799.893 427.137 799.026 426.837 797.993 426.837C796.976 426.837 796.06 427.154 795.243 427.787C794.426 428.404 794.018 429.246 794.018 430.312ZM810.947 438.138C809.264 438.138 807.797 437.504 806.547 436.237C805.297 434.971 804.672 433.304 804.672 431.237C804.672 429.171 805.314 427.521 806.597 426.287C807.881 425.054 809.406 424.437 811.172 424.437C812.956 424.437 814.389 425.187 815.472 426.687V419.387H818.272V437.938H815.472V435.937C814.439 437.404 812.931 438.138 810.947 438.138ZM807.472 431.362C807.472 432.629 807.881 433.662 808.697 434.462C809.514 435.262 810.472 435.662 811.572 435.662C812.672 435.662 813.606 435.262 814.372 434.462C815.139 433.646 815.522 432.604 815.522 431.338C815.522 430.071 815.139 429.012 814.372 428.162C813.606 427.312 812.664 426.887 811.547 426.887C810.431 426.887 809.472 427.312 808.672 428.162C807.872 429.012 807.472 430.079 807.472 431.362ZM820.469 437.587C820.119 437.221 819.944 436.779 819.944 436.262C819.944 435.746 820.119 435.312 820.469 434.962C820.836 434.596 821.277 434.412 821.794 434.412C822.311 434.412 822.752 434.596 823.119 434.962C823.486 435.312 823.669 435.746 823.669 436.262C823.669 436.779 823.486 437.221 823.119 437.587C822.752 437.954 822.311 438.138 821.794 438.138C821.277 438.138 820.836 437.954 820.469 437.587Z" fill="white"/>
<path d="M581.147 350.084C589.169 350.084 595.334 352.047 599.643 355.972C603.953 359.855 606.107 365.274 606.107 372.228C606.107 379.183 604.017 384.687 599.835 388.74C595.654 392.794 589.254 394.82 580.635 394.82H565.787V350.084H581.147ZM598.491 372.42C598.491 362.18 592.625 357.06 580.891 357.06H573.339V387.716H581.723C587.142 387.716 591.281 386.436 594.139 383.876C597.041 381.274 598.491 377.455 598.491 372.42ZM641.506 380.932H614.818C614.988 383.407 616.119 385.412 618.21 386.948C620.3 388.442 622.69 389.188 625.378 389.188C629.644 389.188 632.887 387.844 635.106 385.156L639.202 389.636C635.532 393.434 630.754 395.332 624.866 395.332C620.087 395.332 616.012 393.754 612.642 390.596C609.314 387.396 607.65 383.13 607.65 377.796C607.65 372.42 609.356 368.154 612.77 364.996C616.183 361.839 620.194 360.26 624.802 360.26C629.452 360.26 633.399 361.668 636.642 364.484C639.884 367.258 641.506 371.098 641.506 376.004V380.932ZM614.818 375.3H634.338C634.338 372.442 633.442 370.244 631.65 368.708C629.858 367.172 627.639 366.404 624.994 366.404C622.391 366.404 620.044 367.215 617.954 368.836C615.863 370.415 614.818 372.57 614.818 375.3ZM668.644 384.644C668.644 387.887 667.471 390.49 665.124 392.452C662.778 394.372 659.77 395.332 656.1 395.332C653.626 395.332 651.044 394.884 648.356 393.988C645.711 393.092 643.364 391.834 641.316 390.212L644.772 384.644C648.74 387.631 652.58 389.124 656.292 389.124C657.914 389.124 659.194 388.762 660.132 388.036C661.071 387.268 661.54 386.308 661.54 385.156C661.54 383.45 659.279 381.914 654.756 380.548C654.415 380.42 654.159 380.335 653.988 380.292C646.906 378.372 643.364 375.172 643.364 370.692C643.364 367.535 644.58 365.018 647.012 363.14C649.487 361.22 652.687 360.26 656.612 360.26C660.538 360.26 664.25 361.412 667.748 363.716L665.06 369.028C662.287 367.194 659.279 366.276 656.036 366.276C654.33 366.276 652.943 366.596 651.876 367.236C650.81 367.834 650.276 368.751 650.276 369.988C650.276 371.098 650.831 371.908 651.94 372.42C652.708 372.804 653.775 373.167 655.14 373.508C656.548 373.85 657.786 374.191 658.852 374.532C659.919 374.874 660.943 375.258 661.924 375.684C662.948 376.111 664.036 376.708 665.188 377.476C667.492 379.012 668.644 381.402 668.644 384.644ZM678.931 394.82H671.763V360.772H678.931V394.82ZM672.211 353.988C671.315 353.092 670.867 352.026 670.867 350.788C670.867 349.551 671.315 348.484 672.211 347.588C673.107 346.692 674.174 346.244 675.411 346.244C676.649 346.244 677.715 346.692 678.611 347.588C679.507 348.484 679.955 349.551 679.955 350.788C679.955 352.026 679.507 353.092 678.611 353.988C677.715 354.884 676.649 355.332 675.411 355.332C674.174 355.332 673.107 354.884 672.211 353.988ZM715.814 360.772V390.468C715.814 396.484 714.171 400.986 710.886 403.972C707.643 407.002 703.462 408.516 698.342 408.516C693.222 408.516 688.592 406.916 684.454 403.716L687.846 398.276C691.174 400.794 694.523 402.052 697.894 402.052C701.307 402.052 703.995 401.178 705.958 399.428C707.963 397.679 708.966 394.884 708.966 391.044V386.692C707.899 388.698 706.363 390.298 704.358 391.492C702.395 392.687 700.176 393.284 697.702 393.284C693.179 393.284 689.467 391.706 686.566 388.548C683.664 385.391 682.214 381.466 682.214 376.772C682.214 372.079 683.664 368.154 686.566 364.996C689.467 361.839 693.158 360.26 697.638 360.26C702.16 360.26 705.83 362.116 708.646 365.828V360.772H715.814ZM689.254 376.516C689.254 379.29 690.107 381.7 691.814 383.748C693.563 385.754 695.888 386.756 698.79 386.756C701.734 386.756 704.102 385.775 705.894 383.812C707.728 381.85 708.646 379.418 708.646 376.516C708.646 373.572 707.728 371.098 705.894 369.092C704.059 367.044 701.691 366.02 698.79 366.02C695.888 366.02 693.563 367.066 691.814 369.156C690.107 371.247 689.254 373.7 689.254 376.516ZM728.369 376.388V394.82H721.201V360.772H728.369V366.98C729.521 364.89 731.099 363.247 733.105 362.052C735.153 360.858 737.35 360.26 739.697 360.26C743.537 360.26 746.63 361.434 748.977 363.78C751.366 366.127 752.561 369.519 752.561 373.956V394.82H745.393V376.132C745.393 369.86 742.79 366.724 737.585 366.724C735.11 366.724 732.955 367.556 731.121 369.22C729.286 370.842 728.369 373.231 728.369 376.388Z" fill="white"/>
<circle cx="1274.5" cy="395.5" r="53.5" fill="#302C2C"/>
<path d="M1279.25 422L1276.84 419.613L1299.18 397.3H1245V393.881H1299.18L1276.84 371.569L1279.25 369.182L1305.66 395.591L1279.25 422Z" fill="white"/>
<rect x="520" y="462" width="854" height="534" rx="40" fill="#EBC244"/>
<path d="M575.063 582.125C575.863 583.058 576.946 583.525 578.313 583.525C579.68 583.525 580.763 583.058 581.563 582.125C582.363 581.192 582.763 579.925 582.763 578.325V568.65H585.713V578.45C585.713 580.967 585.021 582.908 583.638 584.275C582.255 585.625 580.48 586.3 578.313 586.3C576.146 586.3 574.371 585.625 572.988 584.275C571.605 582.908 570.913 580.967 570.913 578.45V568.65H573.863V578.325C573.863 579.925 574.263 581.192 575.063 582.125ZM590.727 578.925V586.125H587.927V572.825H590.727V575.25C591.177 574.433 591.794 573.792 592.577 573.325C593.377 572.858 594.236 572.625 595.152 572.625C596.652 572.625 597.861 573.083 598.777 574C599.711 574.917 600.177 576.242 600.177 577.975V586.125H597.377V578.825C597.377 576.375 596.361 575.15 594.327 575.15C593.361 575.15 592.519 575.475 591.802 576.125C591.086 576.758 590.727 577.692 590.727 578.925ZM605.54 575.075V581.825C605.54 582.458 605.706 582.967 606.04 583.35C606.373 583.717 606.84 583.9 607.44 583.9C608.04 583.9 608.615 583.608 609.165 583.025L610.315 585C609.331 585.883 608.24 586.325 607.04 586.325C605.856 586.325 604.84 585.917 603.99 585.1C603.156 584.267 602.74 583.15 602.74 581.75V575.075H601.065V572.825H602.74V568.65H605.54V572.825H609.04V575.075H605.54ZM613.339 586.125H610.539V572.825H613.339V586.125ZM610.714 570.175C610.364 569.825 610.189 569.408 610.189 568.925C610.189 568.442 610.364 568.025 610.714 567.675C611.064 567.325 611.48 567.15 611.964 567.15C612.447 567.15 612.864 567.325 613.214 567.675C613.564 568.025 613.739 568.442 613.739 568.925C613.739 569.408 613.564 569.825 613.214 570.175C612.864 570.525 612.447 570.7 611.964 570.7C611.48 570.7 611.064 570.525 610.714 570.175ZM618.199 586.125H615.399V567.575H618.199V586.125ZM633.809 580.025V572.825H636.609V586.125H633.809V583.7C633.359 584.517 632.734 585.158 631.934 585.625C631.151 586.092 630.301 586.325 629.384 586.325C627.884 586.325 626.668 585.867 625.734 584.95C624.818 584.033 624.359 582.708 624.359 580.975V572.825H627.159V580.125C627.159 582.575 628.176 583.8 630.209 583.8C631.176 583.8 632.018 583.483 632.734 582.85C633.451 582.2 633.809 581.258 633.809 580.025ZM641.472 578.925V586.125H638.672V572.825H641.472V575.25C641.922 574.433 642.538 573.792 643.322 573.325C644.122 572.858 644.98 572.625 645.897 572.625C647.397 572.625 648.605 573.083 649.522 574C650.455 574.917 650.922 576.242 650.922 577.975V586.125H648.122V578.825C648.122 576.375 647.105 575.15 645.072 575.15C644.105 575.15 643.263 575.475 642.547 576.125C641.83 576.758 641.472 577.692 641.472 578.925ZM655.634 578.925V586.125H652.834V572.825H655.634V575.25C656.034 574.433 656.634 573.792 657.434 573.325C658.25 572.858 659.125 572.625 660.059 572.625C662.159 572.625 663.584 573.492 664.334 575.225C665.65 573.492 667.292 572.625 669.259 572.625C670.759 572.625 671.967 573.083 672.884 574C673.817 574.917 674.284 576.242 674.284 577.975V586.125H671.484V578.825C671.484 576.375 670.467 575.15 668.434 575.15C667.484 575.15 666.65 575.458 665.934 576.075C665.234 576.675 664.867 577.558 664.834 578.725V586.125H662.034V578.825C662.034 577.558 661.809 576.633 661.359 576.05C660.909 575.45 660.2 575.15 659.234 575.15C658.267 575.15 657.425 575.475 656.709 576.125C655.992 576.758 655.634 577.692 655.634 578.925ZM678.976 586.125H676.176V572.825H678.976V586.125ZM676.351 570.175C676.001 569.825 675.826 569.408 675.826 568.925C675.826 568.442 676.001 568.025 676.351 567.675C676.701 567.325 677.117 567.15 677.601 567.15C678.084 567.15 678.501 567.325 678.851 567.675C679.201 568.025 679.376 568.442 679.376 568.925C679.376 569.408 679.201 569.825 678.851 570.175C678.501 570.525 678.084 570.7 677.601 570.7C677.117 570.7 676.701 570.525 676.351 570.175ZM690.511 582.15C690.511 583.417 690.053 584.433 689.136 585.2C688.219 585.95 687.044 586.325 685.611 586.325C684.644 586.325 683.636 586.15 682.586 585.8C681.553 585.45 680.636 584.958 679.836 584.325L681.186 582.15C682.736 583.317 684.236 583.9 685.686 583.9C686.319 583.9 686.819 583.758 687.186 583.475C687.553 583.175 687.736 582.8 687.736 582.35C687.736 581.683 686.853 581.083 685.086 580.55C684.953 580.5 684.853 580.467 684.786 580.45C682.019 579.7 680.636 578.45 680.636 576.7C680.636 575.467 681.111 574.483 682.061 573.75C683.028 573 684.278 572.625 685.811 572.625C687.344 572.625 688.794 573.075 690.161 573.975L689.111 576.05C688.028 575.333 686.853 574.975 685.586 574.975C684.919 574.975 684.378 575.1 683.961 575.35C683.544 575.583 683.336 575.942 683.336 576.425C683.336 576.858 683.553 577.175 683.986 577.375C684.286 577.525 684.703 577.667 685.236 577.8C685.786 577.933 686.269 578.067 686.686 578.2C687.103 578.333 687.503 578.483 687.886 578.65C688.286 578.817 688.711 579.05 689.161 579.35C690.061 579.95 690.511 580.883 690.511 582.15ZM695.132 575.075V581.825C695.132 582.458 695.299 582.967 695.632 583.35C695.966 583.717 696.432 583.9 697.032 583.9C697.632 583.9 698.207 583.608 698.757 583.025L699.907 585C698.924 585.883 697.832 586.325 696.632 586.325C695.449 586.325 694.432 585.917 693.582 585.1C692.749 584.267 692.332 583.15 692.332 581.75V575.075H690.657V572.825H692.332V568.65H695.132V572.825H698.632V575.075H695.132ZM710.907 586.125H708.357V584.35C707.257 585.667 705.782 586.325 703.932 586.325C702.548 586.325 701.398 585.933 700.482 585.15C699.582 584.367 699.132 583.325 699.132 582.025C699.132 580.708 699.615 579.725 700.582 579.075C701.548 578.425 702.857 578.1 704.507 578.1H708.132V577.6C708.132 575.833 707.148 574.95 705.182 574.95C703.948 574.95 702.665 575.4 701.332 576.3L700.082 574.55C701.698 573.267 703.532 572.625 705.582 572.625C707.148 572.625 708.423 573.025 709.407 573.825C710.407 574.608 710.907 575.85 710.907 577.55V586.125ZM708.107 581.175V580.05H704.957C702.94 580.05 701.932 580.683 701.932 581.95C701.932 582.6 702.182 583.1 702.682 583.45C703.182 583.783 703.873 583.95 704.757 583.95C705.657 583.95 706.44 583.7 707.107 583.2C707.773 582.7 708.107 582.025 708.107 581.175ZM715.604 586.125H712.804V567.575H715.604V578.475L721.004 572.825H724.604L719.554 578.1L724.979 586.125H721.579L717.629 580.3L715.604 582.35V586.125ZM736.106 586.125H733.556V584.35C732.456 585.667 730.981 586.325 729.131 586.325C727.747 586.325 726.597 585.933 725.681 585.15C724.781 584.367 724.331 583.325 724.331 582.025C724.331 580.708 724.814 579.725 725.781 579.075C726.747 578.425 728.056 578.1 729.706 578.1H733.331V577.6C733.331 575.833 732.347 574.95 730.381 574.95C729.147 574.95 727.864 575.4 726.531 576.3L725.281 574.55C726.897 573.267 728.731 572.625 730.781 572.625C732.347 572.625 733.622 573.025 734.606 573.825C735.606 574.608 736.106 575.85 736.106 577.55V586.125ZM733.306 581.175V580.05H730.156C728.139 580.05 727.131 580.683 727.131 581.95C727.131 582.6 727.381 583.1 727.881 583.45C728.381 583.783 729.072 583.95 729.956 583.95C730.856 583.95 731.639 583.7 732.306 583.2C732.972 582.7 733.306 582.025 733.306 581.175ZM745.129 572.625C746.912 572.625 748.437 573.242 749.704 574.475C750.97 575.708 751.604 577.35 751.604 579.4C751.604 581.45 750.97 583.117 749.704 584.4C748.454 585.683 746.987 586.325 745.304 586.325C743.637 586.325 742.137 585.592 740.804 584.125V586.125H738.004V567.575H740.804V575.15C741.904 573.467 743.345 572.625 745.129 572.625ZM740.754 579.5C740.754 580.767 741.137 581.808 741.904 582.625C742.67 583.425 743.604 583.825 744.704 583.825C745.804 583.825 746.762 583.425 747.579 582.625C748.395 581.825 748.804 580.792 748.804 579.525C748.804 578.242 748.404 577.183 747.604 576.35C746.804 575.5 745.845 575.075 744.729 575.075C743.612 575.075 742.67 575.5 741.904 576.35C741.137 577.183 740.754 578.233 740.754 579.5ZM755.601 586.125H752.801V567.575H755.601V586.125ZM759.336 591.425C758.119 591.425 757.019 590.983 756.036 590.1L757.311 587.825C757.894 588.375 758.494 588.65 759.111 588.65C759.744 588.65 760.253 588.425 760.636 587.975C761.036 587.525 761.236 587.033 761.236 586.5C761.236 586.267 759.444 581.708 755.861 572.825H758.861L762.836 582.625L766.811 572.825H769.811L763.361 588.625C762.978 589.492 762.428 590.175 761.711 590.675C760.994 591.175 760.203 591.425 759.336 591.425ZM775.941 591.425C774.725 591.425 773.625 590.983 772.641 590.1L773.916 587.825C774.5 588.375 775.1 588.65 775.716 588.65C776.35 588.65 776.858 588.425 777.241 587.975C777.641 587.525 777.841 587.033 777.841 586.5C777.841 586.267 776.05 581.708 772.466 572.825H775.466L779.441 582.625L783.416 572.825H786.416L779.966 588.625C779.583 589.492 779.033 590.175 778.316 590.675C777.6 591.175 776.808 591.425 775.941 591.425ZM789.722 582.625C790.522 583.425 791.53 583.825 792.747 583.825C793.963 583.825 794.963 583.425 795.747 582.625C796.547 581.808 796.947 580.758 796.947 579.475C796.947 578.192 796.547 577.15 795.747 576.35C794.963 575.533 793.963 575.125 792.747 575.125C791.53 575.125 790.522 575.533 789.722 576.35C788.938 577.15 788.547 578.192 788.547 579.475C788.547 580.758 788.938 581.808 789.722 582.625ZM797.747 584.35C796.413 585.667 794.747 586.325 792.747 586.325C790.747 586.325 789.08 585.667 787.747 584.35C786.413 583.017 785.747 581.392 785.747 579.475C785.747 577.558 786.413 575.942 787.747 574.625C789.08 573.292 790.747 572.625 792.747 572.625C794.747 572.625 796.413 573.292 797.747 574.625C799.08 575.942 799.747 577.558 799.747 579.475C799.747 581.392 799.08 583.017 797.747 584.35ZM810.23 580.025V572.825H813.03V586.125H810.23V583.7C809.78 584.517 809.155 585.158 808.355 585.625C807.572 586.092 806.722 586.325 805.805 586.325C804.305 586.325 803.089 585.867 802.155 584.95C801.239 584.033 800.78 582.708 800.78 580.975V572.825H803.58V580.125C803.58 582.575 804.597 583.8 806.63 583.8C807.597 583.8 808.439 583.483 809.155 582.85C809.872 582.2 810.23 581.258 810.23 580.025ZM822.068 575.45C820.684 575.45 819.643 575.9 818.943 576.8C818.243 577.7 817.893 578.908 817.893 580.425V586.125H815.093V572.825H817.893V575.5C818.343 574.667 818.951 573.983 819.718 573.45C820.501 572.917 821.326 572.642 822.193 572.625L822.218 575.45C822.168 575.45 822.118 575.45 822.068 575.45ZM832.504 582.15C832.504 583.417 832.046 584.433 831.129 585.2C830.212 585.95 829.037 586.325 827.604 586.325C826.637 586.325 825.629 586.15 824.579 585.8C823.546 585.45 822.629 584.958 821.829 584.325L823.179 582.15C824.729 583.317 826.229 583.9 827.679 583.9C828.312 583.9 828.812 583.758 829.179 583.475C829.546 583.175 829.729 582.8 829.729 582.35C829.729 581.683 828.846 581.083 827.079 580.55C826.946 580.5 826.846 580.467 826.779 580.45C824.012 579.7 822.629 578.45 822.629 576.7C822.629 575.467 823.104 574.483 824.054 573.75C825.021 573 826.271 572.625 827.804 572.625C829.337 572.625 830.787 573.075 832.154 573.975L831.104 576.05C830.021 575.333 828.846 574.975 827.579 574.975C826.912 574.975 826.371 575.1 825.954 575.35C825.537 575.583 825.329 575.942 825.329 576.425C825.329 576.858 825.546 577.175 825.979 577.375C826.279 577.525 826.696 577.667 827.229 577.8C827.779 577.933 828.262 578.067 828.679 578.2C829.096 578.333 829.496 578.483 829.879 578.65C830.279 578.817 830.704 579.05 831.154 579.35C832.054 579.95 832.504 580.883 832.504 582.15ZM833.826 585.775C833.476 585.408 833.301 584.967 833.301 584.45C833.301 583.933 833.476 583.5 833.826 583.15C834.192 582.783 834.634 582.6 835.151 582.6C835.667 582.6 836.109 582.783 836.476 583.15C836.842 583.5 837.026 583.933 837.026 584.45C837.026 584.967 836.842 585.408 836.476 585.775C836.109 586.142 835.667 586.325 835.151 586.325C834.634 586.325 834.192 586.142 833.826 585.775Z" fill="#302C2C"/>
<path d="M601.499 512.651C601.499 520.033 598.278 524.683 591.835 526.603L603.547 542.859H593.947L583.259 527.819H573.339V542.859H565.787V498.123H582.427C589.254 498.123 594.139 499.275 597.083 501.579C600.027 503.883 601.499 507.574 601.499 512.651ZM582.747 520.971C587.014 520.971 589.915 520.31 591.451 518.987C592.987 517.665 593.755 515.553 593.755 512.651C593.755 509.707 592.966 507.702 591.387 506.635C589.809 505.526 586.993 504.971 582.939 504.971H573.339V520.971H582.747ZM638.006 528.971H611.318C611.488 531.446 612.619 533.451 614.71 534.987C616.8 536.481 619.19 537.227 621.878 537.227C626.144 537.227 629.387 535.883 631.606 533.195L635.702 537.675C632.032 541.473 627.254 543.371 621.366 543.371C616.587 543.371 612.512 541.793 609.142 538.635C605.814 535.435 604.15 531.169 604.15 525.835C604.15 520.459 605.856 516.193 609.27 513.035C612.683 509.878 616.694 508.299 621.302 508.299C625.952 508.299 629.899 509.707 633.142 512.523C636.384 515.297 638.006 519.137 638.006 524.043V528.971ZM611.318 523.339H630.838C630.838 520.481 629.942 518.283 628.15 516.747C626.358 515.211 624.139 514.443 621.494 514.443C618.891 514.443 616.544 515.254 614.454 516.875C612.363 518.454 611.318 520.609 611.318 523.339ZM649.72 505.995V508.811H658.68V514.571H649.72V542.859H642.552V514.571H638.264V508.811H642.552V506.187C642.552 502.603 643.619 499.766 645.752 497.675C647.928 495.542 650.531 494.475 653.56 494.475C656.632 494.475 659.427 495.606 661.944 497.867L659 502.923C657.592 501.43 656.12 500.683 654.584 500.683C653.048 500.683 651.854 501.174 651 502.155C650.147 503.094 649.72 504.374 649.72 505.995ZM667.744 542.859H660.576V508.811H667.744V542.859ZM661.024 502.027C660.128 501.131 659.68 500.065 659.68 498.827C659.68 497.59 660.128 496.523 661.024 495.627C661.92 494.731 662.986 494.283 664.224 494.283C665.461 494.283 666.528 494.731 667.424 495.627C668.32 496.523 668.768 497.59 668.768 498.827C668.768 500.065 668.32 501.131 667.424 502.027C666.528 502.923 665.461 503.371 664.224 503.371C662.986 503.371 661.92 502.923 661.024 502.027ZM680.306 524.427V542.859H673.138V508.811H680.306V515.019C681.458 512.929 683.037 511.286 685.042 510.091C687.09 508.897 689.288 508.299 691.634 508.299C695.474 508.299 698.568 509.473 700.914 511.819C703.304 514.166 704.498 517.558 704.498 521.995V542.859H697.33V524.171C697.33 517.899 694.728 514.763 689.522 514.763C687.048 514.763 684.893 515.595 683.058 517.259C681.224 518.881 680.306 521.27 680.306 524.427ZM741.193 528.971H714.505C714.676 531.446 715.807 533.451 717.897 534.987C719.988 536.481 722.377 537.227 725.065 537.227C729.332 537.227 732.575 535.883 734.793 533.195L738.889 537.675C735.22 541.473 730.441 543.371 724.553 543.371C719.775 543.371 715.7 541.793 712.329 538.635C709.001 535.435 707.337 531.169 707.337 525.835C707.337 520.459 709.044 516.193 712.457 513.035C715.871 509.878 719.881 508.299 724.489 508.299C729.14 508.299 733.087 509.707 736.329 512.523C739.572 515.297 741.193 519.137 741.193 524.043V528.971ZM714.505 523.339H734.025C734.025 520.481 733.129 518.283 731.337 516.747C729.545 515.211 727.327 514.443 724.681 514.443C722.079 514.443 719.732 515.254 717.641 516.875C715.551 518.454 714.505 520.609 714.505 523.339Z" fill="#302C2C"/>
<circle cx="1274.5" cy="543.5" r="53.5" fill="#302C2C"/>
<path d="M1279.25 570.053L1276.84 567.665L1299.18 545.353H1245V541.934H1299.18L1276.84 519.622L1279.25 517.234L1305.66 543.643L1279.25 570.053Z" fill="white"/>
<rect x="520" y="610" width="854" height="533" rx="40" fill="#6496F2"/>
<path d="M578.788 733.938H571.138V716.462H577.938C579.121 716.462 580.138 716.604 580.988 716.887C581.855 717.171 582.496 717.554 582.913 718.037C583.713 718.937 584.113 719.954 584.113 721.088C584.113 722.454 583.68 723.471 582.813 724.137C582.496 724.371 582.28 724.521 582.163 724.587C582.046 724.637 581.838 724.729 581.538 724.862C582.621 725.096 583.48 725.587 584.113 726.337C584.763 727.071 585.088 727.987 585.088 729.087C585.088 730.304 584.671 731.379 583.838 732.312C582.855 733.396 581.171 733.938 578.788 733.938ZM574.088 723.712H577.838C579.971 723.712 581.038 722.987 581.038 721.537C581.038 720.704 580.78 720.104 580.263 719.737C579.746 719.371 578.946 719.187 577.863 719.187H574.088V723.712ZM574.088 731.212H578.713C579.796 731.212 580.621 731.046 581.188 730.712C581.771 730.362 582.063 729.712 582.063 728.762C582.063 727.212 580.821 726.437 578.338 726.437H574.088V731.212ZM595.689 727.837V720.637H598.489V733.938H595.689V731.512C595.239 732.329 594.614 732.971 593.814 733.437C593.031 733.904 592.181 734.138 591.264 734.138C589.764 734.138 588.548 733.679 587.614 732.762C586.698 731.846 586.239 730.521 586.239 728.787V720.637H589.039V727.937C589.039 730.387 590.056 731.612 592.089 731.612C593.056 731.612 593.898 731.296 594.614 730.662C595.331 730.012 595.689 729.071 595.689 727.837ZM603.351 733.938H600.551V720.637H603.351V733.938ZM600.726 717.987C600.376 717.637 600.201 717.221 600.201 716.737C600.201 716.254 600.376 715.837 600.726 715.487C601.076 715.137 601.493 714.962 601.976 714.962C602.46 714.962 602.876 715.137 603.226 715.487C603.576 715.837 603.751 716.254 603.751 716.737C603.751 717.221 603.576 717.637 603.226 717.987C602.876 718.337 602.46 718.512 601.976 718.512C601.493 718.512 601.076 718.337 600.726 717.987ZM608.212 733.938H605.412V715.387H608.212V733.938ZM613.722 722.887V729.637C613.722 730.271 613.889 730.779 614.222 731.162C614.556 731.529 615.022 731.712 615.622 731.712C616.222 731.712 616.797 731.421 617.347 730.837L618.497 732.812C617.514 733.696 616.422 734.138 615.222 734.138C614.039 734.138 613.022 733.729 612.172 732.912C611.339 732.079 610.922 730.962 610.922 729.562V722.887H609.247V720.637H610.922V716.462H613.722V720.637H617.222V722.887H613.722ZM626.421 722.887V729.637C626.421 730.271 626.588 730.779 626.921 731.162C627.255 731.529 627.721 731.712 628.321 731.712C628.921 731.712 629.496 731.421 630.046 730.837L631.196 732.812C630.213 733.696 629.121 734.138 627.921 734.138C626.738 734.138 625.721 733.729 624.871 732.912C624.038 732.079 623.621 730.962 623.621 729.562V722.887H621.946V720.637H623.621V716.462H626.421V720.637H629.921V722.887H626.421ZM634.521 730.437C635.321 731.237 636.329 731.637 637.546 731.637C638.762 731.637 639.762 731.237 640.546 730.437C641.346 729.621 641.746 728.571 641.746 727.287C641.746 726.004 641.346 724.962 640.546 724.162C639.762 723.346 638.762 722.937 637.546 722.937C636.329 722.937 635.321 723.346 634.521 724.162C633.737 724.962 633.346 726.004 633.346 727.287C633.346 728.571 633.737 729.621 634.521 730.437ZM642.546 732.162C641.212 733.479 639.546 734.138 637.546 734.138C635.546 734.138 633.879 733.479 632.546 732.162C631.212 730.829 630.546 729.204 630.546 727.287C630.546 725.371 631.212 723.754 632.546 722.437C633.879 721.104 635.546 720.437 637.546 720.437C639.546 720.437 641.212 721.104 642.546 722.437C643.879 723.754 644.546 725.371 644.546 727.287C644.546 729.204 643.879 730.829 642.546 732.162ZM657.104 720.437C658.888 720.437 660.413 721.054 661.679 722.287C662.946 723.521 663.579 725.162 663.579 727.212C663.579 729.262 662.946 730.929 661.679 732.212C660.429 733.496 658.963 734.138 657.279 734.138C655.613 734.138 654.113 733.404 652.779 731.937V738.788H649.979V720.637H652.779V722.962C653.879 721.279 655.321 720.437 657.104 720.437ZM652.729 727.312C652.729 728.579 653.113 729.621 653.879 730.437C654.646 731.237 655.579 731.637 656.679 731.637C657.779 731.637 658.738 731.237 659.554 730.437C660.371 729.637 660.779 728.604 660.779 727.338C660.779 726.054 660.379 724.996 659.579 724.162C658.779 723.312 657.821 722.887 656.704 722.887C655.588 722.887 654.646 723.312 653.879 724.162C653.113 724.996 652.729 726.046 652.729 727.312ZM677.151 728.512H666.726C666.793 729.479 667.234 730.262 668.051 730.862C668.868 731.446 669.801 731.737 670.851 731.737C672.518 731.737 673.784 731.212 674.651 730.162L676.251 731.912C674.818 733.396 672.951 734.138 670.651 734.138C668.784 734.138 667.193 733.521 665.876 732.288C664.576 731.037 663.926 729.371 663.926 727.287C663.926 725.187 664.593 723.521 665.926 722.287C667.259 721.054 668.826 720.437 670.626 720.437C672.443 720.437 673.984 720.987 675.251 722.087C676.518 723.171 677.151 724.671 677.151 726.588V728.512ZM666.726 726.312H674.351C674.351 725.196 674.001 724.337 673.301 723.737C672.601 723.137 671.734 722.837 670.701 722.837C669.684 722.837 668.768 723.154 667.951 723.787C667.134 724.404 666.726 725.246 666.726 726.312ZM685.205 723.262C683.822 723.262 682.78 723.712 682.08 724.612C681.38 725.512 681.03 726.721 681.03 728.237V733.938H678.23V720.637H681.03V723.312C681.48 722.479 682.089 721.796 682.855 721.262C683.639 720.729 684.464 720.454 685.33 720.437L685.355 723.262C685.305 723.262 685.255 723.262 685.205 723.262ZM689.617 719.537V720.637H693.117V722.887H689.617V733.938H686.817V722.887H685.142V720.637H686.817V719.612C686.817 718.212 687.233 717.104 688.067 716.287C688.917 715.454 689.933 715.037 691.117 715.037C692.317 715.037 693.408 715.479 694.392 716.362L693.242 718.337C692.692 717.754 692.117 717.462 691.517 717.462C690.917 717.462 690.45 717.654 690.117 718.037C689.783 718.404 689.617 718.904 689.617 719.537ZM696.91 730.437C697.71 731.237 698.719 731.637 699.935 731.637C701.152 731.637 702.152 731.237 702.935 730.437C703.735 729.621 704.135 728.571 704.135 727.287C704.135 726.004 703.735 724.962 702.935 724.162C702.152 723.346 701.152 722.937 699.935 722.937C698.719 722.937 697.71 723.346 696.91 724.162C696.127 724.962 695.735 726.004 695.735 727.287C695.735 728.571 696.127 729.621 696.91 730.437ZM704.935 732.162C703.602 733.479 701.935 734.138 699.935 734.138C697.935 734.138 696.269 733.479 694.935 732.162C693.602 730.829 692.935 729.204 692.935 727.287C692.935 725.371 693.602 723.754 694.935 722.437C696.269 721.104 697.935 720.437 699.935 720.437C701.935 720.437 703.602 721.104 704.935 722.437C706.269 723.754 706.935 725.371 706.935 727.287C706.935 729.204 706.269 730.829 704.935 732.162ZM715.094 723.262C713.711 723.262 712.669 723.712 711.969 724.612C711.269 725.512 710.919 726.721 710.919 728.237V733.938H708.119V720.637H710.919V723.312C711.369 722.479 711.977 721.796 712.744 721.262C713.527 720.729 714.352 720.454 715.219 720.437L715.244 723.262C715.194 723.262 715.144 723.262 715.094 723.262ZM718.855 726.737V733.938H716.055V720.637H718.855V723.062C719.255 722.246 719.855 721.604 720.655 721.137C721.472 720.671 722.347 720.437 723.28 720.437C725.38 720.437 726.805 721.304 727.555 723.037C728.872 721.304 730.514 720.437 732.48 720.437C733.98 720.437 735.189 720.896 736.105 721.812C737.039 722.729 737.505 724.054 737.505 725.787V733.938H734.705V726.637C734.705 724.187 733.689 722.962 731.655 722.962C730.705 722.962 729.872 723.271 729.155 723.887C728.455 724.487 728.089 725.371 728.055 726.537V733.938H725.255V726.637C725.255 725.371 725.03 724.446 724.58 723.862C724.13 723.262 723.422 722.962 722.455 722.962C721.489 722.962 720.647 723.287 719.93 723.937C719.214 724.571 718.855 725.504 718.855 726.737ZM739.547 733.587C739.197 733.221 739.022 732.779 739.022 732.262C739.022 731.746 739.197 731.312 739.547 730.962C739.914 730.596 740.356 730.412 740.872 730.412C741.389 730.412 741.831 730.596 742.197 730.962C742.564 731.312 742.747 731.746 742.747 732.262C742.747 732.779 742.564 733.221 742.197 733.587C741.831 733.954 741.389 734.138 740.872 734.138C740.356 734.138 739.914 733.954 739.547 733.587Z" fill="white"/>
<path d="M581.147 646.084C589.169 646.084 595.334 648.047 599.643 651.972C603.953 655.855 606.107 661.274 606.107 668.228C606.107 675.183 604.017 680.687 599.835 684.74C595.654 688.794 589.254 690.82 580.635 690.82H565.787V646.084H581.147ZM598.491 668.42C598.491 658.18 592.625 653.06 580.891 653.06H573.339V683.716H581.723C587.142 683.716 591.281 682.436 594.139 679.876C597.041 677.274 598.491 673.455 598.491 668.42ZM641.506 676.932H614.818C614.988 679.407 616.119 681.412 618.21 682.948C620.3 684.442 622.69 685.188 625.378 685.188C629.644 685.188 632.887 683.844 635.106 681.156L639.202 685.636C635.532 689.434 630.754 691.332 624.866 691.332C620.087 691.332 616.012 689.754 612.642 686.596C609.314 683.396 607.65 679.13 607.65 673.796C607.65 668.42 609.356 664.154 612.77 660.996C616.183 657.839 620.194 656.26 624.802 656.26C629.452 656.26 633.399 657.668 636.642 660.484C639.884 663.258 641.506 667.098 641.506 672.004V676.932ZM614.818 671.3H634.338C634.338 668.442 633.442 666.244 631.65 664.708C629.858 663.172 627.639 662.404 624.994 662.404C622.391 662.404 620.044 663.215 617.954 664.836C615.863 666.415 614.818 668.57 614.818 671.3ZM651.556 690.82H644.388V643.332H651.556V690.82ZM664.119 690.82H656.951V656.772H664.119V690.82ZM657.399 649.988C656.503 649.092 656.055 648.026 656.055 646.788C656.055 645.551 656.503 644.484 657.399 643.588C658.295 642.692 659.361 642.244 660.599 642.244C661.836 642.244 662.903 642.692 663.799 643.588C664.695 644.484 665.143 645.551 665.143 646.788C665.143 648.026 664.695 649.092 663.799 649.988C662.903 650.884 661.836 651.332 660.599 651.332C659.361 651.332 658.295 650.884 657.399 649.988ZM678.537 690.82L664.841 656.772H672.265L682.633 682.5L693.001 656.772H700.425L686.729 690.82H678.537ZM732.818 676.932H706.13C706.301 679.407 707.432 681.412 709.522 682.948C711.613 684.442 714.002 685.188 716.69 685.188C720.957 685.188 724.2 683.844 726.418 681.156L730.514 685.636C726.845 689.434 722.066 691.332 716.178 691.332C711.4 691.332 707.325 689.754 703.954 686.596C700.626 683.396 698.962 679.13 698.962 673.796C698.962 668.42 700.669 664.154 704.082 660.996C707.496 657.839 711.506 656.26 716.114 656.26C720.765 656.26 724.712 657.668 727.954 660.484C731.197 663.258 732.818 667.098 732.818 672.004V676.932ZM706.13 671.3H725.65C725.65 668.442 724.754 666.244 722.962 664.708C721.17 663.172 718.952 662.404 716.306 662.404C713.704 662.404 711.357 663.215 709.266 664.836C707.176 666.415 706.13 668.57 706.13 671.3ZM753.557 663.492C750.015 663.492 747.349 664.644 745.557 666.948C743.765 669.252 742.869 672.346 742.869 676.228V690.82H735.701V656.772H742.869V663.62C744.021 661.487 745.578 659.738 747.541 658.372C749.546 657.007 751.658 656.303 753.877 656.26L753.941 663.492C753.813 663.492 753.685 663.492 753.557 663.492Z" fill="white"/>
<circle cx="1274.5" cy="691.5" r="53.5" fill="#302C2C"/>
<path d="M1279.25 718L1276.84 715.613L1299.18 693.3H1245V689.881H1299.18L1276.84 667.569L1279.25 665.182L1305.66 691.591L1279.25 718Z" fill="white"/>
<rect x="520" y="759" width="854" height="533" rx="40" fill="#C2F196"/>
<path d="M576.413 867.762C575.563 867.762 574.863 867.937 574.313 868.287C573.763 868.637 573.488 869.171 573.488 869.887C573.488 870.587 573.763 871.129 574.313 871.512C574.863 871.879 576.03 872.279 577.813 872.712C579.613 873.146 580.963 873.754 581.863 874.537C582.78 875.321 583.238 876.479 583.238 878.012C583.238 879.529 582.663 880.762 581.513 881.712C580.363 882.662 578.855 883.138 576.988 883.138C574.255 883.138 571.83 882.196 569.713 880.312L571.563 878.087C573.33 879.621 575.163 880.387 577.063 880.387C578.013 880.387 578.763 880.187 579.313 879.787C579.88 879.371 580.163 878.829 580.163 878.162C580.163 877.479 579.896 876.954 579.363 876.587C578.846 876.204 577.946 875.862 576.663 875.562C575.38 875.246 574.405 874.962 573.738 874.712C573.071 874.446 572.48 874.104 571.963 873.687C570.93 872.904 570.413 871.704 570.413 870.088C570.413 868.471 570.996 867.229 572.163 866.362C573.346 865.479 574.805 865.037 576.538 865.037C577.655 865.037 578.763 865.221 579.863 865.587C580.963 865.954 581.913 866.471 582.713 867.137L581.138 869.362C580.621 868.896 579.921 868.512 579.038 868.212C578.155 867.912 577.28 867.762 576.413 867.762ZM587.585 879.437C588.385 880.237 589.393 880.637 590.61 880.637C591.827 880.637 592.827 880.237 593.61 879.437C594.41 878.621 594.81 877.571 594.81 876.287C594.81 875.004 594.41 873.962 593.61 873.162C592.827 872.346 591.827 871.937 590.61 871.937C589.393 871.937 588.385 872.346 587.585 873.162C586.802 873.962 586.41 875.004 586.41 876.287C586.41 877.571 586.802 878.621 587.585 879.437ZM595.61 881.162C594.277 882.479 592.61 883.138 590.61 883.138C588.61 883.138 586.943 882.479 585.61 881.162C584.277 879.829 583.61 878.204 583.61 876.287C583.61 874.371 584.277 872.754 585.61 871.437C586.943 870.104 588.61 869.437 590.61 869.437C592.61 869.437 594.277 870.104 595.61 871.437C596.943 872.754 597.61 874.371 597.61 876.287C597.61 878.204 596.943 879.829 595.61 881.162ZM602.244 868.537V869.637H605.744V871.887H602.244V882.938H599.444V871.887H597.769V869.637H599.444V868.612C599.444 867.212 599.86 866.104 600.694 865.287C601.544 864.454 602.56 864.037 603.744 864.037C604.944 864.037 606.035 864.479 607.019 865.362L605.869 867.337C605.319 866.754 604.744 866.462 604.144 866.462C603.544 866.462 603.077 866.654 602.744 867.037C602.41 867.404 602.244 867.904 602.244 868.537ZM609.887 871.887V878.637C609.887 879.271 610.054 879.779 610.387 880.162C610.721 880.529 611.187 880.712 611.787 880.712C612.387 880.712 612.962 880.421 613.512 879.837L614.662 881.812C613.679 882.696 612.587 883.138 611.387 883.138C610.204 883.138 609.187 882.729 608.337 881.912C607.504 881.079 607.087 879.962 607.087 878.562V871.887H605.412V869.637H607.087V865.462H609.887V869.637H613.387V871.887H609.887ZM621.111 882.938H617.911L613.311 869.637H616.211L619.511 879.687L622.811 869.637H625.711L629.011 879.687L632.311 869.637H635.211L630.611 882.938H627.411L624.261 873.837L621.111 882.938ZM646.464 882.938H643.914V881.162C642.814 882.479 641.339 883.138 639.489 883.138C638.106 883.138 636.956 882.746 636.039 881.962C635.139 881.179 634.689 880.137 634.689 878.837C634.689 877.521 635.173 876.537 636.139 875.887C637.106 875.237 638.414 874.912 640.064 874.912H643.689V874.412C643.689 872.646 642.706 871.762 640.739 871.762C639.506 871.762 638.223 872.212 636.889 873.112L635.639 871.362C637.256 870.079 639.089 869.437 641.139 869.437C642.706 869.437 643.981 869.837 644.964 870.637C645.964 871.421 646.464 872.662 646.464 874.362V882.938ZM643.664 877.987V876.862H640.514C638.498 876.862 637.489 877.496 637.489 878.762C637.489 879.412 637.739 879.912 638.239 880.262C638.739 880.596 639.431 880.762 640.314 880.762C641.214 880.762 641.998 880.512 642.664 880.012C643.331 879.512 643.664 878.837 643.664 877.987ZM655.337 872.262C653.954 872.262 652.912 872.712 652.212 873.612C651.512 874.512 651.162 875.721 651.162 877.237V882.938H648.362V869.637H651.162V872.312C651.612 871.479 652.22 870.796 652.987 870.262C653.77 869.729 654.595 869.454 655.462 869.437L655.487 872.262C655.437 872.262 655.387 872.262 655.337 872.262ZM668.674 877.512H658.249C658.315 878.479 658.757 879.262 659.574 879.862C660.39 880.446 661.324 880.737 662.374 880.737C664.04 880.737 665.307 880.212 666.174 879.162L667.774 880.912C666.34 882.396 664.474 883.138 662.174 883.138C660.307 883.138 658.715 882.521 657.399 881.288C656.099 880.037 655.449 878.371 655.449 876.287C655.449 874.187 656.115 872.521 657.449 871.287C658.782 870.054 660.349 869.437 662.149 869.437C663.965 869.437 665.507 869.987 666.774 871.087C668.04 872.171 668.674 873.671 668.674 875.588V877.512ZM658.249 875.312H665.874C665.874 874.196 665.524 873.337 664.824 872.737C664.124 872.137 663.257 871.837 662.224 871.837C661.207 871.837 660.29 872.154 659.474 872.787C658.657 873.404 658.249 874.246 658.249 875.312ZM686.678 865.462V868.238H677.353V872.862H685.728V875.487H677.353V880.162H686.978V882.938H674.403V865.462H686.678ZM691.16 875.737V882.938H688.36V869.637H691.16V872.062C691.61 871.246 692.227 870.604 693.01 870.137C693.81 869.671 694.668 869.437 695.585 869.437C697.085 869.437 698.293 869.896 699.21 870.812C700.143 871.729 700.61 873.054 700.61 874.787V882.938H697.81V875.637C697.81 873.187 696.793 871.962 694.76 871.962C693.793 871.962 692.952 872.287 692.235 872.937C691.518 873.571 691.16 874.504 691.16 875.737ZM714.822 869.637V881.237C714.822 883.588 714.181 885.346 712.897 886.513C711.631 887.696 709.997 888.288 707.997 888.288C705.997 888.288 704.189 887.663 702.572 886.413L703.897 884.288C705.197 885.271 706.506 885.763 707.822 885.763C709.156 885.763 710.206 885.421 710.972 884.738C711.756 884.054 712.147 882.962 712.147 881.462V879.762C711.731 880.546 711.131 881.171 710.347 881.637C709.581 882.104 708.714 882.337 707.747 882.337C705.981 882.337 704.531 881.721 703.397 880.487C702.264 879.254 701.697 877.721 701.697 875.887C701.697 874.054 702.264 872.521 703.397 871.287C704.531 870.054 705.972 869.437 707.722 869.437C709.489 869.437 710.922 870.162 712.022 871.612V869.637H714.822ZM704.447 875.787C704.447 876.871 704.781 877.812 705.447 878.612C706.131 879.396 707.039 879.787 708.172 879.787C709.322 879.787 710.247 879.404 710.947 878.637C711.664 877.871 712.022 876.921 712.022 875.787C712.022 874.637 711.664 873.671 710.947 872.887C710.231 872.087 709.306 871.687 708.172 871.687C707.039 871.687 706.131 872.096 705.447 872.912C704.781 873.729 704.447 874.687 704.447 875.787ZM719.68 882.938H716.88V869.637H719.68V882.938ZM717.055 866.987C716.705 866.637 716.53 866.221 716.53 865.737C716.53 865.254 716.705 864.837 717.055 864.487C717.405 864.137 717.821 863.962 718.305 863.962C718.788 863.962 719.205 864.137 719.555 864.487C719.905 864.837 720.08 865.254 720.08 865.737C720.08 866.221 719.905 866.637 719.555 866.987C719.205 867.337 718.788 867.512 718.305 867.512C717.821 867.512 717.405 867.337 717.055 866.987ZM724.54 875.737V882.938H721.74V869.637H724.54V872.062C724.99 871.246 725.607 870.604 726.39 870.137C727.19 869.671 728.048 869.437 728.965 869.437C730.465 869.437 731.673 869.896 732.59 870.812C733.523 871.729 733.99 873.054 733.99 874.787V882.938H731.19V875.637C731.19 873.187 730.173 871.962 728.14 871.962C727.173 871.962 726.332 872.287 725.615 872.937C724.898 873.571 724.54 874.504 724.54 875.737ZM748.277 877.512H737.852C737.919 878.479 738.36 879.262 739.177 879.862C739.994 880.446 740.927 880.737 741.977 880.737C743.644 880.737 744.91 880.212 745.777 879.162L747.377 880.912C745.944 882.396 744.077 883.138 741.777 883.138C739.91 883.138 738.319 882.521 737.002 881.288C735.702 880.037 735.052 878.371 735.052 876.287C735.052 874.187 735.719 872.521 737.052 871.287C738.385 870.054 739.952 869.437 741.752 869.437C743.569 869.437 745.11 869.987 746.377 871.087C747.644 872.171 748.277 873.671 748.277 875.588V877.512ZM737.852 875.312H745.477C745.477 874.196 745.127 873.337 744.427 872.737C743.727 872.137 742.86 871.837 741.827 871.837C740.81 871.837 739.894 872.154 739.077 872.787C738.26 873.404 737.852 874.246 737.852 875.312ZM761.731 877.512H751.306C751.373 878.479 751.815 879.262 752.631 879.862C753.448 880.446 754.381 880.737 755.431 880.737C757.098 880.737 758.365 880.212 759.231 879.162L760.831 880.912C759.398 882.396 757.531 883.138 755.231 883.138C753.365 883.138 751.773 882.521 750.456 881.288C749.156 880.037 748.506 878.371 748.506 876.287C748.506 874.187 749.173 872.521 750.506 871.287C751.84 870.054 753.406 869.437 755.206 869.437C757.023 869.437 758.565 869.987 759.831 871.087C761.098 872.171 761.731 873.671 761.731 875.588V877.512ZM751.306 875.312H758.931C758.931 874.196 758.581 873.337 757.881 872.737C757.181 872.137 756.315 871.837 755.281 871.837C754.265 871.837 753.348 872.154 752.531 872.787C751.715 873.404 751.306 874.246 751.306 875.312ZM769.785 872.262C768.402 872.262 767.36 872.712 766.66 873.612C765.96 874.512 765.61 875.721 765.61 877.237V882.938H762.81V869.637H765.61V872.312C766.06 871.479 766.669 870.796 767.435 870.262C768.219 869.729 769.044 869.454 769.91 869.437L769.935 872.262C769.885 872.262 769.835 872.262 769.785 872.262ZM770.897 882.587C770.547 882.221 770.372 881.779 770.372 881.262C770.372 880.746 770.547 880.312 770.897 879.962C771.263 879.596 771.705 879.412 772.222 879.412C772.738 879.412 773.18 879.596 773.547 879.962C773.913 880.312 774.097 880.746 774.097 881.262C774.097 881.779 773.913 882.221 773.547 882.587C773.18 882.954 772.738 883.138 772.222 883.138C771.705 883.138 771.263 882.954 770.897 882.587ZM792.829 878.937C793.629 879.871 794.712 880.337 796.079 880.337C797.445 880.337 798.529 879.871 799.329 878.937C800.129 878.004 800.529 876.737 800.529 875.137V865.462H803.479V875.262C803.479 877.779 802.787 879.721 801.404 881.087C800.02 882.437 798.245 883.113 796.079 883.113C793.912 883.113 792.137 882.437 790.754 881.087C789.37 879.721 788.679 877.779 788.679 875.262V865.462H791.629V875.137C791.629 876.737 792.029 878.004 792.829 878.937ZM816.443 882.938L812.143 876.362H812.018L807.718 882.938H804.043L810.043 873.962L804.468 865.462H808.118L812.018 871.362H812.143L816.043 865.462H819.693L814.118 873.962L820.118 882.938H816.443ZM831.164 865.462C834.298 865.462 836.706 866.229 838.389 867.762C840.073 869.279 840.914 871.396 840.914 874.112C840.914 876.829 840.098 878.979 838.464 880.562C836.831 882.146 834.331 882.938 830.964 882.938H825.164V865.462H831.164ZM837.939 874.187C837.939 870.187 835.648 868.187 831.064 868.187H828.114V880.162H831.389C833.506 880.162 835.123 879.662 836.239 878.662C837.373 877.646 837.939 876.154 837.939 874.187ZM854.695 877.512H844.27C844.337 878.479 844.778 879.262 845.595 879.862C846.412 880.446 847.345 880.737 848.395 880.737C850.062 880.737 851.328 880.212 852.195 879.162L853.795 880.912C852.362 882.396 850.495 883.138 848.195 883.138C846.328 883.138 844.737 882.521 843.42 881.288C842.12 880.037 841.47 878.371 841.47 876.287C841.47 874.187 842.137 872.521 843.47 871.287C844.803 870.054 846.37 869.437 848.17 869.437C849.987 869.437 851.528 869.987 852.795 871.087C854.062 872.171 854.695 873.671 854.695 875.588V877.512ZM844.27 875.312H851.895C851.895 874.196 851.545 873.337 850.845 872.737C850.145 872.137 849.278 871.837 848.245 871.837C847.228 871.837 846.312 872.154 845.495 872.787C844.678 873.404 844.27 874.246 844.27 875.312ZM865.249 878.962C865.249 880.229 864.791 881.246 863.874 882.012C862.957 882.763 861.782 883.138 860.349 883.138C859.382 883.138 858.374 882.963 857.324 882.612C856.291 882.262 855.374 881.771 854.574 881.137L855.924 878.962C857.474 880.129 858.974 880.712 860.424 880.712C861.057 880.712 861.557 880.571 861.924 880.287C862.291 879.987 862.474 879.612 862.474 879.162C862.474 878.496 861.591 877.896 859.824 877.362C859.691 877.312 859.591 877.279 859.524 877.262C856.757 876.512 855.374 875.262 855.374 873.512C855.374 872.279 855.849 871.296 856.799 870.562C857.766 869.812 859.016 869.437 860.549 869.437C862.082 869.437 863.532 869.887 864.899 870.787L863.849 872.862C862.766 872.146 861.591 871.787 860.324 871.787C859.657 871.787 859.116 871.912 858.699 872.162C858.282 872.396 858.074 872.754 858.074 873.237C858.074 873.671 858.291 873.987 858.724 874.187C859.024 874.337 859.441 874.479 859.974 874.612C860.524 874.746 861.007 874.879 861.424 875.012C861.841 875.146 862.241 875.296 862.624 875.462C863.024 875.629 863.449 875.862 863.899 876.162C864.799 876.762 865.249 877.696 865.249 878.962ZM869.221 882.938H866.421V869.637H869.221V882.938ZM866.596 866.987C866.246 866.637 866.071 866.221 866.071 865.737C866.071 865.254 866.246 864.837 866.596 864.487C866.946 864.137 867.362 863.962 867.846 863.962C868.329 863.962 868.746 864.137 869.096 864.487C869.446 864.837 869.621 865.254 869.621 865.737C869.621 866.221 869.446 866.637 869.096 866.987C868.746 867.337 868.329 867.512 867.846 867.512C867.362 867.512 866.946 867.337 866.596 866.987ZM883.581 869.637V881.237C883.581 883.588 882.939 885.346 881.656 886.513C880.389 887.696 878.756 888.288 876.756 888.288C874.756 888.288 872.948 887.663 871.331 886.413L872.656 884.288C873.956 885.271 875.264 885.763 876.581 885.763C877.914 885.763 878.964 885.421 879.731 884.738C880.514 884.054 880.906 882.962 880.906 881.462V879.762C880.489 880.546 879.889 881.171 879.106 881.637C878.339 882.104 877.473 882.337 876.506 882.337C874.739 882.337 873.289 881.721 872.156 880.487C871.023 879.254 870.456 877.721 870.456 875.887C870.456 874.054 871.023 872.521 872.156 871.287C873.289 870.054 874.731 869.437 876.481 869.437C878.248 869.437 879.681 870.162 880.781 871.612V869.637H883.581ZM873.206 875.787C873.206 876.871 873.539 877.812 874.206 878.612C874.889 879.396 875.798 879.787 876.931 879.787C878.081 879.787 879.006 879.404 879.706 878.637C880.423 877.871 880.781 876.921 880.781 875.787C880.781 874.637 880.423 873.671 879.706 872.887C878.989 872.087 878.064 871.687 876.931 871.687C875.798 871.687 874.889 872.096 874.206 872.912C873.539 873.729 873.206 874.687 873.206 875.787ZM888.438 875.737V882.938H885.638V869.637H888.438V872.062C888.888 871.246 889.505 870.604 890.288 870.137C891.088 869.671 891.947 869.437 892.863 869.437C894.363 869.437 895.572 869.896 896.488 870.812C897.422 871.729 897.888 873.054 897.888 874.787V882.938H895.088V875.637C895.088 873.187 894.072 871.962 892.038 871.962C891.072 871.962 890.23 872.287 889.513 872.937C888.797 873.571 888.438 874.504 888.438 875.737ZM912.176 877.512H901.751C901.817 878.479 902.259 879.262 903.076 879.862C903.892 880.446 904.826 880.737 905.876 880.737C907.542 880.737 908.809 880.212 909.676 879.162L911.276 880.912C909.842 882.396 907.976 883.138 905.676 883.138C903.809 883.138 902.217 882.521 900.901 881.288C899.601 880.037 898.951 878.371 898.951 876.287C898.951 874.187 899.617 872.521 900.951 871.287C902.284 870.054 903.851 869.437 905.651 869.437C907.467 869.437 909.009 869.987 910.276 871.087C911.542 872.171 912.176 873.671 912.176 875.588V877.512ZM901.751 875.312H909.376C909.376 874.196 909.026 873.337 908.326 872.737C907.626 872.137 906.759 871.837 905.726 871.837C904.709 871.837 903.792 872.154 902.976 872.787C902.159 873.404 901.751 874.246 901.751 875.312ZM920.23 872.262C918.846 872.262 917.805 872.712 917.105 873.612C916.405 874.512 916.055 875.721 916.055 877.237V882.938H913.255V869.637H916.055V872.312C916.505 871.479 917.113 870.796 917.88 870.262C918.663 869.729 919.488 869.454 920.355 869.437L920.38 872.262C920.33 872.262 920.28 872.262 920.23 872.262ZM921.341 882.587C920.991 882.221 920.816 881.779 920.816 881.262C920.816 880.746 920.991 880.312 921.341 879.962C921.708 879.596 922.149 879.412 922.666 879.412C923.183 879.412 923.624 879.596 923.991 879.962C924.358 880.312 924.541 880.746 924.541 881.262C924.541 881.779 924.358 882.221 923.991 882.587C923.624 882.954 923.183 883.138 922.666 883.138C922.149 883.138 921.708 882.954 921.341 882.587Z" fill="#302C2C"/>
<path d="M596.763 818.06H604.315V833.356C600.091 838.007 594.054 840.332 586.203 840.332C579.59 840.332 574.043 838.156 569.563 833.804C565.126 829.452 562.907 823.948 562.907 817.292C562.907 810.636 565.169 805.09 569.691 800.652C574.257 796.215 579.761 793.996 586.203 793.996C592.646 793.996 598.001 795.874 602.267 799.628L598.235 805.388C596.486 803.895 594.715 802.871 592.923 802.316C591.174 801.719 589.126 801.42 586.779 801.42C582.257 801.42 578.459 802.892 575.387 805.836C572.315 808.738 570.779 812.578 570.779 817.356C570.779 822.092 572.273 825.911 575.259 828.812C578.246 831.671 581.851 833.1 586.075 833.1C590.342 833.1 593.905 832.183 596.763 830.348V818.06ZM609.225 795.084H616.777V839.82H609.225V795.084ZM656.034 805.644C653.005 802.487 649.272 800.908 644.834 800.908C640.397 800.908 636.642 802.487 633.57 805.644C630.541 808.802 629.026 812.642 629.026 817.164C629.026 821.644 630.541 825.463 633.57 828.62C636.642 831.778 640.397 833.356 644.834 833.356C649.272 833.356 653.005 831.778 656.034 828.62C659.106 825.463 660.642 821.644 660.642 817.164C660.642 812.642 659.106 808.802 656.034 805.644ZM661.602 833.676C657.08 838.071 651.49 840.268 644.834 840.268C638.178 840.268 632.589 838.071 628.066 833.676C623.544 829.239 621.282 823.735 621.282 817.164C621.282 810.551 623.544 805.047 628.066 800.652C632.589 796.215 638.178 793.996 644.834 793.996C651.49 793.996 657.08 796.215 661.602 800.652C666.125 805.047 668.386 810.551 668.386 817.164C668.386 823.735 666.125 829.239 661.602 833.676ZM686.416 800.972C684.24 800.972 682.448 801.42 681.04 802.316C679.632 803.212 678.928 804.578 678.928 806.412C678.928 808.204 679.632 809.591 681.04 810.572C682.448 811.511 685.435 812.535 690 813.644C694.608 814.754 698.064 816.311 700.368 818.316C702.715 820.322 703.888 823.287 703.888 827.212C703.888 831.095 702.416 834.252 699.472 836.684C696.528 839.116 692.667 840.332 687.888 840.332C680.891 840.332 674.683 837.922 669.264 833.1L674 827.404C678.523 831.33 683.216 833.292 688.08 833.292C690.512 833.292 692.432 832.78 693.84 831.756C695.291 830.69 696.016 829.303 696.016 827.596C696.016 825.847 695.334 824.503 693.968 823.564C692.646 822.583 690.342 821.708 687.056 820.94C683.771 820.13 681.275 819.404 679.568 818.764C677.862 818.082 676.347 817.207 675.024 816.14C672.379 814.135 671.056 811.063 671.056 806.924C671.056 802.786 672.55 799.607 675.536 797.388C678.566 795.127 682.299 793.996 686.736 793.996C689.595 793.996 692.432 794.466 695.248 795.404C698.064 796.343 700.496 797.666 702.544 799.372L698.512 805.068C697.19 803.874 695.398 802.892 693.136 802.124C690.875 801.356 688.635 800.972 686.416 800.972ZM707.585 838.924C706.689 837.986 706.241 836.855 706.241 835.532C706.241 834.21 706.689 833.1 707.585 832.204C708.523 831.266 709.654 830.796 710.977 830.796C712.299 830.796 713.43 831.266 714.369 832.204C715.307 833.1 715.777 834.21 715.777 835.532C715.777 836.855 715.307 837.986 714.369 838.924C713.43 839.863 712.299 840.332 710.977 840.332C709.654 840.332 708.523 839.863 707.585 838.924ZM740.746 839.82H721.162V795.084H738.57C741.6 795.084 744.202 795.447 746.378 796.172C748.597 796.898 750.24 797.879 751.306 799.116C753.354 801.42 754.378 804.023 754.378 806.924C754.378 810.423 753.269 813.026 751.05 814.732C750.24 815.33 749.685 815.714 749.386 815.884C749.088 816.012 748.554 816.247 747.786 816.588C750.56 817.186 752.757 818.444 754.378 820.364C756.042 822.242 756.874 824.588 756.874 827.404C756.874 830.519 755.808 833.271 753.674 835.66C751.157 838.434 746.848 839.82 740.746 839.82ZM728.714 813.644H738.314C743.776 813.644 746.506 811.788 746.506 808.076C746.506 805.943 745.845 804.407 744.522 803.468C743.2 802.53 741.152 802.06 738.378 802.06H728.714V813.644ZM728.714 832.844H740.554C743.328 832.844 745.44 832.418 746.89 831.564C748.384 830.668 749.13 829.004 749.13 826.572C749.13 822.604 745.952 820.62 739.594 820.62H728.714V832.844ZM771.398 829.58C773.446 831.97 776.219 833.164 779.718 833.164C783.216 833.164 785.99 831.97 788.038 829.58C790.086 827.191 791.11 823.948 791.11 819.852V795.084H798.662V820.172C798.662 826.615 796.891 831.586 793.35 835.084C789.808 838.54 785.264 840.268 779.718 840.268C774.171 840.268 769.627 838.54 766.086 835.084C762.544 831.586 760.774 826.615 760.774 820.172V795.084H768.326V819.852C768.326 823.948 769.35 827.191 771.398 829.58ZM805.475 795.084H813.027V839.82H805.475V795.084ZM820.412 839.82V795.084H827.964V832.652H848.38V839.82H820.412ZM867.022 795.084C875.044 795.084 881.209 797.047 885.518 800.972C889.828 804.855 891.982 810.274 891.982 817.228C891.982 824.183 889.892 829.687 885.71 833.74C881.529 837.794 875.129 839.82 866.51 839.82H851.662V795.084H867.022ZM884.366 817.42C884.366 807.18 878.5 802.06 866.766 802.06H859.214V832.716H867.598C873.017 832.716 877.156 831.436 880.014 828.876C882.916 826.274 884.366 822.455 884.366 817.42Z" fill="#302C2C"/>
<circle cx="1274.5" cy="840.5" r="53.5" fill="#302C2C"/>
<path d="M1279.25 867L1276.84 864.613L1299.18 842.3H1245V838.881H1299.18L1276.84 816.569L1279.25 814.182L1305.66 840.591L1279.25 867Z" fill="white"/>
<rect x="761" y="985" width="371" height="93" rx="46.5" fill="#302C2C"/>
<path d="M839.05 1032H844.95V1043.95C841.65 1047.58 836.933 1049.4 830.8 1049.4C825.633 1049.4 821.3 1047.7 817.8 1044.3C814.333 1040.9 812.6 1036.6 812.6 1031.4C812.6 1026.2 814.367 1021.87 817.9 1018.4C821.467 1014.93 825.767 1013.2 830.8 1013.2C835.833 1013.2 840.017 1014.67 843.35 1017.6L840.2 1022.1C838.833 1020.93 837.45 1020.13 836.05 1019.7C834.683 1019.23 833.083 1019 831.25 1019C827.717 1019 824.75 1020.15 822.35 1022.45C819.95 1024.72 818.75 1027.72 818.75 1031.45C818.75 1035.15 819.917 1038.13 822.25 1040.4C824.583 1042.63 827.4 1043.75 830.7 1043.75C834.033 1043.75 836.817 1043.03 839.05 1041.6V1032ZM874.642 1038.15H853.792C853.925 1040.08 854.808 1041.65 856.442 1042.85C858.075 1044.02 859.942 1044.6 862.042 1044.6C865.375 1044.6 867.908 1043.55 869.642 1041.45L872.842 1044.95C869.975 1047.92 866.242 1049.4 861.642 1049.4C857.908 1049.4 854.725 1048.17 852.092 1045.7C849.492 1043.2 848.192 1039.87 848.192 1035.7C848.192 1031.5 849.525 1028.17 852.192 1025.7C854.858 1023.23 857.992 1022 861.592 1022C865.225 1022 868.308 1023.1 870.842 1025.3C873.375 1027.47 874.642 1030.47 874.642 1034.3V1038.15ZM853.792 1033.75H869.042C869.042 1031.52 868.342 1029.8 866.942 1028.6C865.542 1027.4 863.808 1026.8 861.742 1026.8C859.708 1026.8 857.875 1027.43 856.242 1028.7C854.608 1029.93 853.792 1031.62 853.792 1033.75ZM885.7 1026.9V1040.4C885.7 1041.67 886.033 1042.68 886.7 1043.45C887.367 1044.18 888.3 1044.55 889.5 1044.55C890.7 1044.55 891.85 1043.97 892.95 1042.8L895.25 1046.75C893.283 1048.52 891.1 1049.4 888.7 1049.4C886.333 1049.4 884.3 1048.58 882.6 1046.95C880.933 1045.28 880.1 1043.05 880.1 1040.25V1026.9H876.75V1022.4H880.1V1014.05H885.7V1022.4H892.7V1026.9H885.7ZM927.148 1041.05C927.148 1043.58 926.232 1045.62 924.398 1047.15C922.565 1048.65 920.215 1049.4 917.348 1049.4C915.415 1049.4 913.398 1049.05 911.298 1048.35C909.232 1047.65 907.398 1046.67 905.798 1045.4L908.498 1041.05C911.598 1043.38 914.598 1044.55 917.498 1044.55C918.765 1044.55 919.765 1044.27 920.498 1043.7C921.232 1043.1 921.598 1042.35 921.598 1041.45C921.598 1040.12 919.832 1038.92 916.298 1037.85C916.032 1037.75 915.832 1037.68 915.698 1037.65C910.165 1036.15 907.398 1033.65 907.398 1030.15C907.398 1027.68 908.348 1025.72 910.248 1024.25C912.182 1022.75 914.682 1022 917.748 1022C920.815 1022 923.715 1022.9 926.448 1024.7L924.348 1028.85C922.182 1027.42 919.832 1026.7 917.298 1026.7C915.965 1026.7 914.882 1026.95 914.048 1027.45C913.215 1027.92 912.798 1028.63 912.798 1029.6C912.798 1030.47 913.232 1031.1 914.098 1031.5C914.698 1031.8 915.532 1032.08 916.598 1032.35C917.698 1032.62 918.665 1032.88 919.498 1033.15C920.332 1033.42 921.132 1033.72 921.898 1034.05C922.698 1034.38 923.548 1034.85 924.448 1035.45C926.248 1036.65 927.148 1038.52 927.148 1041.05ZM938.391 1026.9V1040.4C938.391 1041.67 938.725 1042.68 939.391 1043.45C940.058 1044.18 940.991 1044.55 942.191 1044.55C943.391 1044.55 944.541 1043.97 945.641 1042.8L947.941 1046.75C945.975 1048.52 943.791 1049.4 941.391 1049.4C939.025 1049.4 936.991 1048.58 935.291 1046.95C933.625 1045.28 932.791 1043.05 932.791 1040.25V1026.9H929.441V1022.4H932.791V1014.05H938.391V1022.4H945.391V1026.9H938.391ZM971.94 1049H966.84V1045.45C964.64 1048.08 961.69 1049.4 957.99 1049.4C955.223 1049.4 952.923 1048.62 951.09 1047.05C949.29 1045.48 948.39 1043.4 948.39 1040.8C948.39 1038.17 949.357 1036.2 951.29 1034.9C953.223 1033.6 955.84 1032.95 959.14 1032.95H966.39V1031.95C966.39 1028.42 964.423 1026.65 960.49 1026.65C958.023 1026.65 955.457 1027.55 952.79 1029.35L950.29 1025.85C953.523 1023.28 957.19 1022 961.29 1022C964.423 1022 966.973 1022.8 968.94 1024.4C970.94 1025.97 971.94 1028.45 971.94 1031.85V1049ZM966.34 1039.1V1036.85H960.04C956.007 1036.85 953.99 1038.12 953.99 1040.65C953.99 1041.95 954.49 1042.95 955.49 1043.65C956.49 1044.32 957.873 1044.65 959.64 1044.65C961.44 1044.65 963.007 1044.15 964.34 1043.15C965.673 1042.15 966.34 1040.8 966.34 1039.1ZM991.686 1027.65C988.919 1027.65 986.836 1028.55 985.436 1030.35C984.036 1032.15 983.336 1034.57 983.336 1037.6V1049H977.736V1022.4H983.336V1027.75C984.236 1026.08 985.452 1024.72 986.986 1023.65C988.552 1022.58 990.202 1022.03 991.936 1022L991.986 1027.65C991.886 1027.65 991.786 1027.65 991.686 1027.65ZM1002.51 1026.9V1040.4C1002.51 1041.67 1002.84 1042.68 1003.51 1043.45C1004.18 1044.18 1005.11 1044.55 1006.31 1044.55C1007.51 1044.55 1008.66 1043.97 1009.76 1042.8L1012.06 1046.75C1010.09 1048.52 1007.91 1049.4 1005.51 1049.4C1003.14 1049.4 1001.11 1048.58 999.409 1046.95C997.742 1045.28 996.909 1043.05 996.909 1040.25V1026.9H993.559V1022.4H996.909V1014.05H1002.51V1022.4H1009.51V1026.9H1002.51ZM1039.26 1038.15H1018.41C1018.54 1040.08 1019.42 1041.65 1021.06 1042.85C1022.69 1044.02 1024.56 1044.6 1026.66 1044.6C1029.99 1044.6 1032.52 1043.55 1034.26 1041.45L1037.46 1044.95C1034.59 1047.92 1030.86 1049.4 1026.26 1049.4C1022.52 1049.4 1019.34 1048.17 1016.71 1045.7C1014.11 1043.2 1012.81 1039.87 1012.81 1035.7C1012.81 1031.5 1014.14 1028.17 1016.81 1025.7C1019.47 1023.23 1022.61 1022 1026.21 1022C1029.84 1022 1032.92 1023.1 1035.46 1025.3C1037.99 1027.47 1039.26 1030.47 1039.26 1034.3V1038.15ZM1018.41 1033.75H1033.66C1033.66 1031.52 1032.96 1029.8 1031.56 1028.6C1030.16 1027.4 1028.42 1026.8 1026.36 1026.8C1024.32 1026.8 1022.49 1027.43 1020.86 1028.7C1019.22 1029.93 1018.41 1031.62 1018.41 1033.75ZM1054.27 1049.4C1050.9 1049.4 1047.97 1048.13 1045.47 1045.6C1042.97 1043.07 1041.72 1039.73 1041.72 1035.6C1041.72 1031.47 1043 1028.17 1045.57 1025.7C1048.13 1023.23 1051.18 1022 1054.72 1022C1058.28 1022 1061.15 1023.5 1063.32 1026.5V1011.9H1068.92V1049H1063.32V1045C1061.25 1047.93 1058.23 1049.4 1054.27 1049.4ZM1047.32 1035.85C1047.32 1038.38 1048.13 1040.45 1049.77 1042.05C1051.4 1043.65 1053.32 1044.45 1055.52 1044.45C1057.72 1044.45 1059.58 1043.65 1061.12 1042.05C1062.65 1040.42 1063.42 1038.33 1063.42 1035.8C1063.42 1033.27 1062.65 1031.15 1061.12 1029.45C1059.58 1027.75 1057.7 1026.9 1055.47 1026.9C1053.23 1026.9 1051.32 1027.75 1049.72 1029.45C1048.12 1031.15 1047.32 1033.28 1047.32 1035.85Z" fill="white"/>
</g>
<defs>
<clipPath id="clip0_1_17">
<rect width="1894" height="1174" fill="white"/>
</clipPath>
</defs>
</svg>
