<svg width="1205" height="482" viewBox="0 0 1205 482" fill="none" xmlns="http://www.w3.org/2000/svg">
<path d="M0 0V32.9772H234.551V0H0ZM267.782 0V32.9772H602.029C602.029 32.9772 567.888 0 522.669 0H267.782ZM667.598 0V32.9772H869.811L857.809 0H667.598ZM1014.79 0L1002.79 32.9772H1203.16V0H1014.79ZM0 64.1325V97.1097H234.551V64.1325H0ZM267.782 64.1795V97.1109H640.814C640.814 97.1109 636.458 71.73 628.858 64.1795H267.782ZM667.598 64.1795V97.1109H891.982L880.873 64.1795H667.598ZM990.782 64.1795L979.673 97.1109H1203.16V64.1795H990.782ZM67.4041 128.265V161.289H168.982V128.265H67.4041ZM335.188 128.265V161.289H436.766V128.265H335.188ZM535.566 128.265V161.289H637.144C637.144 161.289 643.593 143.849 643.593 128.265H535.566ZM735.003 128.265V161.289H915.094L903.091 128.265H735.003ZM968.66 128.265L956.61 161.289H1137.59V128.265H968.66ZM67.4041 192.446V225.423H168.982V192.446H67.4041ZM335.188 192.446V225.423H594.639C594.639 225.423 616.343 208.502 623.257 192.446H335.188ZM735.003 192.446V225.423H836.581V207.066L843.03 225.423H1029.1L1036.02 207.066V225.423H1137.6V192.446H946.913L936.794 220.378L926.626 192.446H735.003ZM67.4041 256.578V289.555H168.982V256.578H67.4041ZM335.188 256.578V289.555H623.257C616.342 273.552 594.639 256.578 594.639 256.578H335.188ZM735.003 256.578V289.555H836.581V256.578H735.003ZM855.032 256.578L867.317 289.555H1006.83L1018.51 256.578H855.032ZM1036.02 256.578V289.555H1137.59V256.578H1036.02ZM67.4041 320.711V353.687H168.982V320.711H67.4041ZM335.188 320.711V353.687H436.766V320.711H335.188ZM535.566 320.711V353.687H643.592C643.592 338.124 637.143 320.711 637.143 320.711H535.566ZM735.003 320.711V353.687H836.581V320.711H735.003ZM878.097 320.711L890.006 353.687H983.534L995.537 320.711H878.097ZM1036.02 320.711V353.687H1137.59V320.711H1036.02ZM1.83522 384.843V417.868H236.386V384.843H1.83522ZM267.782 384.843V417.868H628.858C636.458 410.306 640.814 384.843 640.814 384.843H267.782ZM669.434 384.843V417.868H836.581V384.843H669.434ZM901.207 384.843L913.445 417.868H961.033L972.518 384.843H901.207ZM1036.02 384.843V417.868H1205V384.843H1036.02ZM1.83522 449.023V482H236.386V449.023H1.83522ZM267.782 449.023V481.953H522.669C567.888 481.953 602.029 449.023 602.029 449.023H267.782ZM669.434 449.023V482H836.581V449.023H669.434ZM924.413 449.023L936.181 481.907L938.206 481.953L950.162 449.023H924.413ZM1036.02 449.023V482H1205V449.023H1036.02Z" fill="black"/>
</svg>
