<svg width="204" height="200" viewBox="0 0 204 200" fill="none" xmlns="http://www.w3.org/2000/svg">
<rect x="3.5" y="0.5" width="198" height="193" rx="39.5" fill="#F9F9F7"/>
<rect x="3.5" y="0.5" width="198" height="193" rx="39.5" stroke="black"/>
<path d="M31.2 200C6.2 200 -1.19209e-07 181.6 12.6 161C13 171.4 22.8 184.4 36.8 187C62.8 192.8 103.4 172.4 94.6 153.4C92.8 149 89.2 146.8 83.8 146.8C70.6 146.8 50.2 162.4 35.6 162.4C22 162.4 12.2 156.4 11.4 147.6C10 133.6 35.4 122.8 53.4 117.8C32.6 118.4 11.8 105.2 11.8 85.6C11.8 71.6 23 59.8 38.4 55.4C47.8 51.6 51.8 38.2 50.4 32.8L62.8 40.6C60.4 46 54.2 50.8 48.4 53.4C68.4 52.2 92.2 63.6 92.2 85.6C92.2 105.8 71.6 114.8 64 116.2C59 117.6 19.8 128.2 20.8 136.8C21.2 139.8 26 142 33.8 142C49.8 142 68.8 126.6 83.2 126.6C93 126.6 99.4 131.4 101.6 138.6C108.8 158.4 78.4 200 31.2 200ZM36.4 57.6C28.2 62.2 28 78 37.2 94.2C45.6 108.8 59.8 118.6 68.6 113.6C76.8 108.8 76.6 92.4 67.6 76.8C56.4 57.6 42.6 54 36.4 57.6ZM168.172 155.8C155.772 155.8 139.772 147.6 129.172 133.2L126.772 147L110.172 154.2V48.4C110.172 31.6 101.772 28.2 100.972 28C122.572 28 130.572 13.6 131.172 13.2V64.8C134.972 61.2 139.172 58.4 144.172 56.8C160.372 50.4 179.772 59.4 191.572 87.4C203.972 115.8 197.172 154.8 168.172 155.8ZM134.372 111.4C140.572 136.6 155.172 157.6 167.172 154C178.772 150.2 181.772 124.8 174.972 98.8C158.972 37.8 119.172 50 134.372 111.4Z" fill="#302C2C"/>
</svg>
