<svg width="224" height="214" viewBox="0 0 224 214" fill="none" xmlns="http://www.w3.org/2000/svg">
<rect x="0.5" y="0.5" width="223" height="213" rx="39.5" fill="#F9F9F7"/>
<rect x="0.5" y="0.5" width="223" height="213" rx="39.5" stroke="black"/>
<path d="M38.2 213C13.2 213 7 194.6 19.6 174C20 184.4 29.8 197.4 43.8 200C69.8 205.8 110.4 185.4 101.6 166.4C99.8 162 96.2 159.8 90.8 159.8C77.6 159.8 57.2 175.4 42.6 175.4C29 175.4 19.2 169.4 18.4 160.6C17 146.6 42.4 135.8 60.4 130.8C39.6 131.4 18.8 118.2 18.8 98.6C18.8 84.6 30 72.8 45.4 68.4C54.8 64.6 58.8 51.2 57.4 45.8L69.8 53.6C67.4 59 61.2 63.8 55.4 66.4C75.4 65.2 99.2 76.6 99.2 98.6C99.2 118.8 78.6 127.8 71 129.2C66 130.6 26.8 141.2 27.8 149.8C28.2 152.8 33 155 40.8 155C56.8 155 75.8 139.6 90.2 139.6C100 139.6 106.4 144.4 108.6 151.6C115.8 171.4 85.4 213 38.2 213ZM43.4 70.6C35.2 75.2 35 91 44.2 107.2C52.6 121.8 66.8 131.6 75.6 126.6C83.8 121.8 83.6 105.4 74.6 89.8C63.4 70.6 49.6 67 43.4 70.6ZM178.372 168.89C165.352 168.89 148.552 160.28 137.422 145.16L134.902 159.65L117.472 167.21V56.12C117.472 38.48 108.652 34.91 107.812 34.7C130.492 34.7 138.892 19.58 139.522 19.16V73.34C143.512 69.56 147.922 66.62 153.172 64.94C170.182 58.22 190.552 67.67 202.942 97.07C215.962 126.89 208.822 167.84 178.372 168.89ZM142.882 122.27C149.392 148.73 164.722 170.78 177.322 167C189.502 163.01 192.652 136.34 185.512 109.04C168.712 44.99 126.922 57.8 142.882 122.27Z" fill="#302C2C"/>
</svg>
